<svg xmlns="http://www.w3.org/2000/svg" width="116" height="33" fill="none"><path fill="#AEA1C9" d="M.193 9.116a8 8 0 1 0 15.997-.274 8 8 0 0 0-15.997.274m113.304-.905a1.5 1.5 0 0 0-1.668-1.312L98.425 8.501a1.5 1.5 0 1 0 .356 2.979l11.915-1.424 1.424 11.915a1.5 1.5 0 1 0 2.979-.356zM50.324 30.707l.038 1.5zm-39.516-15.83a1.5 1.5 0 0 0 2.25-1.984zm11.206 5.987a1.5 1.5 0 1 0-1.71 2.465zm9.57 8.339a1.5 1.5 0 0 0 1.033-2.818zm12.692-.196a1.5 1.5 0 0 0-.281 2.987zm14.577 2.73a1.5 1.5 0 1 0-.257-2.988zm16.14-5.547a1.5 1.5 0 0 0 .68 2.922zm16.905-2.376a1.5 1.5 0 0 0-1.194-2.752zm13.028-10.944a1.5 1.5 0 1 0 1.819 2.386zM8.191 8.98l-1.287.77.001.001.002.003.004.007.065.106q.066.106.19.297c.166.254.41.618.734 1.072a46 46 0 0 0 2.908 3.64l2.25-1.983a43 43 0 0 1-2.717-3.401 28 28 0 0 1-.82-1.213l-.035-.058-.007-.012-.001-.001zm12.113 14.35a50 50 0 0 0 11.28 5.873l1.033-2.818a47 47 0 0 1-10.603-5.521zm23.69 8.664c2.038.191 4.16.269 6.368.212l-.076-2.999a50 50 0 0 1-6.01-.2zm6.368.212c2.948-.075 5.778-.235 8.491-.468l-.257-2.99c-2.653.23-5.422.386-8.31.46zm25.311-3.094c6.269-1.461 11.653-3.314 16.225-5.298l-1.194-2.752c-4.408 1.913-9.62 3.708-15.712 5.128zm31.072-13.856c2.19-1.67 3.784-3.133 4.838-4.19.527-.529.92-.956 1.185-1.256a16 16 0 0 0 .407-.48l.007-.008.003-.004.001-.001-1.179-.929-1.178-.927.001-.001v-.001l-.001.001-.01.013-.055.066a12 12 0 0 1-.246.286 25 25 0 0 1-1.059 1.122c-.965.968-2.457 2.341-4.533 3.923z"/></svg>