<svg xmlns="http://www.w3.org/2000/svg" width="151" height="93" fill="none"><path fill="#8FBBF5" d="M1.638 3.639a8 8 0 1 0 12.95 9.397 8 8 0 0 0-12.95-9.397m135.658 88.256a1.5 1.5 0 0 0 2.098.31l10.837-8.051a1.5 1.5 0 1 0-1.789-2.408l-9.632 7.156-7.156-9.633a1.5 1.5 0 0 0-2.409 1.789zM42.501 32l.02-1.5zM13.643 17.885a1.5 1.5 0 1 0 2.219-2.019zm18.91 10.46a1.5 1.5 0 1 0-1.151 2.771zm16.543 4.679a1.5 1.5 0 1 0-.424-2.97zm11.95-5.637a1.5 1.5 0 1 0 .74 2.907zm13.14-.101a1.5 1.5 0 0 0-.618-2.936zm12.289-4.768a1.5 1.5 0 0 0 .174 2.994zm12.584 3.69a1.5 1.5 0 0 0 .546-2.95zm13.06 1.231a1.5 1.5 0 0 0-1.334 2.687zm10.223 10.832a1.5 1.5 0 1 0 2.106-2.136zm11.817 11.742a1.5 1.5 0 0 0-2.713 1.281zm2.087 16.613a1.5 1.5 0 1 0 2.951-.54zm4.299 16.17a1.501 1.501 0 0 0-3-.044zM8.113 8.337l-1.274.79v.002l.003.004.007.01.115.182q.119.185.346.527c.303.454.75 1.103 1.328 1.898a74 74 0 0 0 5.005 6.134l2.219-2.019a71 71 0 0 1-4.799-5.88 55 55 0 0 1-1.576-2.283l-.1-.156zm23.289 22.778c3.426 1.423 7.143 2.332 11.079 2.384l.04-3c-3.494-.046-6.834-.852-9.969-2.154zM42.48 33.5c2.15.028 4.36-.154 6.615-.476l-.424-2.97c-2.145.306-4.195.472-6.152.446zm19.304-3.206c4.03-1.026 8.155-2.115 12.4-3.008l-.617-2.936c-4.324.91-8.53 2.02-12.523 3.037zm24.864-4.782c4.092-.237 8.235-.076 12.41.697l.546-2.95c-4.453-.824-8.842-.99-13.13-.741zm24.136 4.614a49 49 0 0 1 5.383 3.122l1.664-2.496a52 52 0 0 0-5.713-3.313zm5.383 3.122a41.7 41.7 0 0 1 6.174 5.023l2.106-2.136a44.7 44.7 0 0 0-6.616-5.383zm15.278 18.046c2.386 5.052 3.884 10.328 4.8 15.332l2.951-.54c-.951-5.2-2.518-10.735-5.038-16.073zm6.099 31.459a79 79 0 0 1-.294 5.883 56 56 0 0 1-.217 2.017l-.014.1-.003.024-.001.004 1.484.22 1.484.218v-.002l.001-.003.001-.009.005-.033.016-.12q.022-.157.057-.453c.048-.393.111-.966.176-1.697.13-1.461.268-3.555.305-6.107z"/></svg>