<svg xmlns="http://www.w3.org/2000/svg" width="134" height="105" fill="none"><path fill="#3B4256" d="M92.894 99.532H23.757c-.46 0-.9-.186-1.222-.512a1.7 1.7 0 0 1-.486-1.233c.877-38.507 9.178-62.862 15.989-76.51C45.505 6.314 52.759.593 53.067.358A1.7 1.7 0 0 1 54.11 0h67.453c.656 0 1.252.376 1.536.968a1.7 1.7 0 0 1-.205 1.806c-.113.144-11.712 14.903-19.934 41.944-8.256 27.144-8.359 52.853-8.359 53.107a1.71 1.71 0 0 1-1.707 1.707M25.51 96.118h65.71c.175-6.26 1.298-28.794 8.473-52.394 6.443-21.19 14.748-34.8 18.523-40.31h-63.48c-1.616 1.435-7.653 7.293-13.78 19.662C34.468 36.185 26.572 59.44 25.51 96.118"/><path fill="#8FBBF5" d="M104.697 91.079c9.312 0 16.861-7.55 16.861-16.861s-7.549-16.862-16.861-16.862-16.861 7.55-16.861 16.862 7.549 16.861 16.861 16.861"/><path fill="#3B4256" d="M97.951 18.2H54.11a1.705 1.705 0 0 1-1.708-1.706c0-.945.763-1.708 1.708-1.708H97.95c.945 0 1.708.763 1.708 1.708 0 .944-.763 1.707-1.708 1.707M89.522 32.99H45.68a1.705 1.705 0 0 1-1.707-1.707c0-.945.762-1.708 1.707-1.708h43.842c.944 0 1.707.763 1.707 1.708s-.763 1.707-1.707 1.707M84.463 47.776H40.618a1.705 1.705 0 0 1-1.708-1.707c0-.945.763-1.707 1.708-1.707h43.841c.945 0 1.707.762 1.707 1.707s-.762 1.707-1.703 1.707M81.09 62.562H37.248a1.705 1.705 0 0 1-1.707-1.707c0-.945.763-1.708 1.707-1.708H81.09a1.708 1.708 0 0 1 0 3.415M79.4 77.352H35.56a1.705 1.705 0 0 1-1.707-1.708c0-.944.762-1.707 1.707-1.707H79.4c.944 0 1.707.763 1.707 1.707s-.763 1.708-1.708 1.708M104.687 92.79c-9.011 0-16.941-6.587-18.345-15.76-1.548-10.124 5.426-19.617 15.545-21.168a18.56 18.56 0 0 1 12.665 2.617c.8.501 1.039 1.556.538 2.353-.5.8-1.555 1.04-2.352.539a15.14 15.14 0 0 0-10.335-2.137c-8.26 1.264-13.951 9.015-12.688 17.275S98.73 90.46 106.99 89.197c8.26-1.264 13.951-9.015 12.688-17.275a1.708 1.708 0 1 1 3.376-.516 18.44 18.44 0 0 1-3.388 13.803 18.45 18.45 0 0 1-12.156 7.365 19 19 0 0 1-2.823.216"/><path fill="#3B4256" d="M104.698 79.298q-.057.001-.114-.004a1.71 1.71 0 0 1-1.309-.755L96.529 68.42a1.706 1.706 0 0 1 .475-2.367 1.706 1.706 0 0 1 2.367.474l5.536 8.305c3.669-3.893 13.644-13.822 25.937-20.655a1.709 1.709 0 0 1 1.658 2.986c-14.725 8.18-26.408 21.422-26.525 21.554-.319.368-.789.581-1.279.581"/><path fill="#FC5130" d="M64.098 92.767H1.707v10.119h62.391z"/><path fill="#3B4256" d="M64.099 104.59H1.707A1.705 1.705 0 0 1 0 102.882V92.763c0-.945.763-1.707 1.707-1.707H64.1c.944 0 1.707.763 1.707 1.707v10.119c0 .945-.763 1.708-1.707 1.708m-60.684-3.415H62.39v-6.704H3.415z"/><path fill="#fff" d="M76.746 97.825 64.1 92.767v10.115z"/><path fill="#3B4256" d="M64.1 104.59a1.703 1.703 0 0 1-1.707-1.707v-10.12c0-.565.28-1.096.75-1.415a1.7 1.7 0 0 1 1.59-.17l12.646 5.057a1.707 1.707 0 0 1 0 3.172l-12.645 5.058a1.6 1.6 0 0 1-.634.125m1.707-9.303v5.072l6.344-2.538z"/></svg>