<svg xmlns="http://www.w3.org/2000/svg" width="104" height="115" fill="none"><path fill="#8FBBF5" d="m31.705 12.1-1 7s-10 16-11 23-5 19-4 24 1 20 2 24c1.6 6.2 27 5 27 5s-28 4-31 0c-6-8-4-22-4-22s-9 1-8-4 8-8 8-18 3-21 7-28c4.4-7.7 15-11 15-11"/><path fill="#8FBBF5" d="M59.705 83.1s-8.2 8.1-12.5 10.5c-6.5 3.5-11.5 2.5-11.5 2.5s1 11.001 2 16.001c6-2 12-7 17-12 5.8-5.8 5-17 5-17"/><path fill="#3B4256" d="M35.204 98.1c12.1 0 14.4-5.3 14.7-5.9.3-.8-.1-1.6-.9-1.9s-1.6.1-1.9.8c-.1.1-2 4-11.9 4-.8 0-1.5.7-1.5 1.5 0 .9.7 1.5 1.5 1.5M76.604 113.301h.2c.8-.1 1.4-.9 1.3-1.7l-5.1-38.4c1.3-1.2 2.5-2.6 3.7-4.2.5-.7.4-1.6-.3-2.1s-1.6-.4-2.1.3c-1.3 1.6-2.6 3.1-3.9 4.3-.4.3-.5.8-.5 1.3l5.2 39.2c.1.7.8 1.3 1.5 1.3"/><path fill="#3B4256" d="M37.005 113.1h.2c.8-.1 1.4-.8 1.3-1.7l-1.8-15.2c-.1-.8-.7-1.3-1.5-1.3h-18.4c-2.8 0-5.1-2.3-5.1-5.1V73.2c0-.7-.5-1.3-1.2-1.5l-6-1.3c-.9-.3-1.4-.7-1.5-1-.1-.2 0-.5.2-.8 3.9-6 8.5-14.3 8.5-19.8v-1.4c-.1-1-.1-1.7-.1-2.3 0-13.9 8.2-26.5 20.9-32.2.8-.3 1.1-1.2.8-2s-1.2-1.1-2-.8c-13.8 6.2-22.6 19.9-22.6 34.9 0 .7 0 1.5.1 2.4v1.3c0 3.7-2.9 10.2-8.1 18.2-.7 1.1-.9 2.4-.5 3.5.5 1.3 1.8 2.4 3.6 2.9l4.9 1v15.4c0 4.5 3.6 8.1 8.1 8.1h17.1l1.7 13.8c0 1 .7 1.5 1.4 1.5"/><path fill="#8FBBF5" d="M68.705 30.3c0 .9.7 1.6 1.6 1.6h8.6c2.8 0-5.2-14 5.8-14 10 0 1 13 5.3 14h7.1c.9 0 1.6-.7 1.6-1.6V3.6c0-.9-.7-1.6-1.6-1.6h-26.7c-.9 0-1.6.7-1.6 1.6v9.2c0 3.1-15.1-7.8-14 5.1 1 12 14 0 14 4.1v8.3z"/><path fill="#FC5130" d="M69.705 31.9v10.2c0 2.8 14-5.2 14 5.8 0 10-13 1-14 5.3v8.7h27.9c1.2 0 2.1-1 2.1-2.1V31.9h-10.9c-3.2 0 7.8-15.1-5.1-14-12 1 0 14-4.1 14z"/><path fill="#3B4256" d="M69.205 63.9h27.8c2.1 0 3.7-1.7 3.7-3.7V3.7c0-2.1-1.7-3.7-3.7-3.7h-56.5c-2.1 0-3.7 1.7-3.7 3.7v28.7c0 .8.7 1.5 1.5 1.5s1.5-.7 1.5-1.5V3.6c0-.4.3-.7.7-.7h56.5c.4 0 .7.3.7.7v56.5c0 .4-.3.7-.7.7h-27.8c-.8 0-1.5.7-1.5 1.5s.7 1.6 1.5 1.6"/><path fill="#3B4256" d="M69.205 63.9c.8 0 1.5-.7 1.5-1.5v-7.8c0-.3.1-1.1.6-1.5.3-.3.9-.2 1.4-.1l1.1.6c1.7 1.3 3.9 1.8 6 1.3 2.9-.6 5.2-2.9 5.8-5.7.5-2.3-.1-4.6-1.5-6.3-1.4-1.8-3.6-2.8-5.8-2.8-1.7 0-3.3.6-4.6 1.6l-1 .5c-.5.1-1 .1-1.4-.1-.5-.4-.6-1.2-.6-1.5v-16c0-.3 0-2.5-1.7-3.8-.7-.6-2.1-1.2-4.1-.6-.1 0-.2.1-.4.1l-1.3.7c-.1 0-.1.1-.2.1-1 .8-2.3 1.1-3.6.9-1.9-.3-3.4-1.9-3.7-3.9-.2-1.3.2-2.6 1.1-3.5.9-1 2.1-1.5 3.4-1.5q1.5 0 2.7.9c.1 0 .1.1.2.1l1.3.8c.1.1.2.1.4.1 2.1.5 3.4-.1 4.1-.6 1.7-1.3 1.7-3.6 1.7-3.8V3.4c0-.8-.7-1.5-1.5-1.5s-1.5.7-1.5 1.5v7.2c0 .3-.1 1.1-.6 1.5-.3.3-.9.2-1.4.1l-1.1-.6q-1.95-1.5-4.5-1.5c-2.1 0-4.2.9-5.6 2.5s-2.1 3.8-1.8 5.9c.4 3.3 2.9 5.9 6.1 6.5 2.1.4 4.2-.1 5.9-1.4l1-.5c.5-.1 1-.1 1.4.1.5.4.6 1.2.6 1.5v16c0 .3 0 2.5 1.7 3.8.7.6 2.1 1.2 4.1.6.1 0 .2-.1.4-.1l1.3-.7c.1 0 .1-.1.2-.1.8-.6 1.8-1 2.8-1 1.4 0 2.6.6 3.5 1.7s1.2 2.4.9 3.8c-.4 1.7-1.7 3.1-3.4 3.4-1.3.3-2.7 0-3.7-.8-.1 0-.1-.1-.2-.1l-1.3-.8c-.1-.1-.2-.1-.4-.1-2.1-.5-3.4.1-4.1.6-1.7 1.3-1.7 3.6-1.7 3.8v7.8c0 .8.7 1.4 1.5 1.4"/><path fill="#3B4256" d="M54.205 48.9c.3 0 .6 0 .9-.1 3.3-.4 5.9-2.9 6.5-6.1.4-2.1-.1-4.2-1.4-5.9l-.5-1c-.1-.5-.1-1 .1-1.4.4-.5 1.2-.6 1.5-.6h16c.3 0 2.5 0 3.8-1.7.6-.7 1.2-2.1.6-4.1 0-.1-.1-.2-.1-.4l-.7-1.3c0-.1-.1-.1-.1-.2-.6-.8-1-1.8-1-2.8 0-1.4.6-2.6 1.7-3.5s2.4-1.2 3.8-.9c1.7.4 3.1 1.7 3.4 3.4.3 1.3 0 2.7-.8 3.7 0 .1-.1.1-.1.2l-.8 1.3c-.1.1-.1.2-.1.4-.5 2.1.1 3.4.6 4.1 1.3 1.7 3.6 1.7 3.8 1.7h7c.8 0 1.5-.7 1.5-1.5s-.7-1.5-1.5-1.5h-7c-.3 0-1.1-.1-1.5-.6-.3-.3-.2-.9-.1-1.4l.6-1.1c1.3-1.7 1.8-3.9 1.3-6-.6-2.9-2.9-5.2-5.7-5.8-2.3-.5-4.6.1-6.3 1.5-1.8 1.4-2.8 3.6-2.8 5.8 0 1.6.6 3.3 1.6 4.6l.5 1c.1.5.1 1-.1 1.4-.4.5-1.2.6-1.5.6h-16c-.3 0-2.5 0-3.8 1.7-.6.7-1.2 2.1-.6 4.1 0 .1.1.2.1.4l.7 1.3c0 .1.1.1.1.2.8 1 1.1 2.3.9 3.6-.3 1.9-1.9 3.4-3.9 3.7-1.3.2-2.6-.2-3.5-1.1-1-.9-1.5-2.1-1.5-3.4q0-1.5.9-2.7c0-.1.1-.1.1-.2l.8-1.3c.1-.1.1-.2.1-.4.5-2.1-.1-3.4-.6-4.1-1.3-1.7-3.6-1.7-3.8-1.7h-9c-.8 0-1.5.7-1.5 1.5s.7 1.5 1.5 1.5h9c.3 0 1.1.1 1.5.6.3.3.2.9.1 1.4l-.6 1.1q-1.5 1.95-1.5 4.5c0 2.1.9 4.2 2.5 5.6 1.3 1.3 3.1 1.9 4.9 1.9"/><path fill="#3B4256" d="M43.205 63.9h4c.8 0 1.5-.7 1.5-1.5s-.7-1.5-1.5-1.5h-4c-.8 0-1.5.7-1.5 1.5s.7 1.5 1.5 1.5m11 0h4c.8 0 1.5-.7 1.5-1.5s-.7-1.5-1.5-1.5h-4c-.8 0-1.5.7-1.5 1.5s.7 1.5 1.5 1.5m11 0h4c.8 0 1.5-.7 1.5-1.5s-.7-1.5-1.5-1.5h-4c-.8 0-1.5.7-1.5 1.5s.7 1.5 1.5 1.5m-27-3.3c.8 0 1.5-.7 1.5-1.5v-4c0-.8-.7-1.5-1.5-1.5s-1.5.7-1.5 1.5v4c0 .8.7 1.5 1.5 1.5m0-11c.8 0 1.5-.7 1.5-1.5v-4c0-.8-.7-1.5-1.5-1.5s-1.5.7-1.5 1.5v4c0 .8.7 1.5 1.5 1.5m0-11c.8 0 1.5-.7 1.5-1.5v-4c0-.8-.7-1.5-1.5-1.5s-1.5.7-1.5 1.5v4c0 .8.7 1.5 1.5 1.5M13.205 113.901h48c.8 0 1.5-.7 1.5-1.5s-.7-1.5-1.5-1.5h-48c-.8 0-1.5.7-1.5 1.5 0 .9.7 1.5 1.5 1.5M72.205 113.901h23c.8 0 1.5-.7 1.5-1.5s-.7-1.5-1.5-1.5h-23c-.8 0-1.5.7-1.5 1.5 0 .9.7 1.5 1.5 1.5M101.605 114.801a1.6 1.6 0 1 1 0-3.2 1.6 1.6 0 0 1 0 3.2"/></svg>