<svg xmlns="http://www.w3.org/2000/svg" width="110" height="105" fill="none"><path fill="#FC5130" d="m101.001 42.977 2.3-19h-37.1l2.3 19zM70.201 60.977l2.8 23.4c.3 2.1 2 3.6 4.1 3.6h15.1c2.1 0 3.9-1.6 4.1-3.6l2.8-23.4z"/><path fill="#3B4256" d="M48.502 104.977c-19.2 0-35.4-9.3-42.9-18.4-3.8-4.6-5.4-9.3-4.7-13.1 1.2-5.9 6.3-7.6 10.4-9 2.8-.9 5.4-1.8 6.5-3.7 1.6-2.7 1.4-4.8 1.1-7.4s-.6-5.5 1-9.1c2.3-5.4 8.2-9.1 17-10.9.8-.2 1.6.4 1.8 1.2s-.4 1.6-1.2 1.8c-5.4 1.1-12.4 3.6-14.8 9.2-1.3 2.9-1 5.2-.8 7.6.3 2.8.6 5.7-1.5 9.3-1.7 2.8-5 3.9-8.1 5-4 1.4-7.5 2.5-8.4 6.8-.6 3 .8 6.7 4.1 10.7 7.1 8.6 22.4 17.3 40.6 17.3.8 0 1.5.7 1.5 1.5s-.8 1.2-1.6 1.2"/><path fill="#3B4256" d="M36.002 57.977c-4.4 0-8-3.1-8-7s3.6-7 8-7 8 3.1 8 7-3.6 7-8 7m0-11c-2.8 0-5 1.8-5 4s2.2 4 5 4 5-1.8 5-4-2.2-4-5-4M90.402 104.977h-11.8c-2.5 0-4.6-2.1-4.6-4.6v-5.9c0-.8.7-1.5 1.5-1.5h18c.8 0 1.5.7 1.5 1.5v5.9c0 2.5-2.1 4.6-4.6 4.6m-13.4-9v4.4c0 .9.7 1.6 1.6 1.6h11.8c.9 0 1.6-.7 1.6-1.6v-4.4zM92.202 88.977h-14.9c-2.9 0-5.3-2.1-5.6-5l-7.3-60.9c-.1-.8.5-1.6 1.3-1.7s1.6.5 1.7 1.3l7.3 60.9c.2 1.3 1.3 2.3 2.6 2.3h14.9c1.3 0 2.5-1 2.6-2.3l7.3-60.9c.1-.8.8-1.4 1.7-1.3.8.1 1.4.8 1.3 1.7l-7.3 60.9c-.3 2.9-2.8 5-5.6 5"/><path fill="#3B4256" d="M108.502 104.977h-107c-.8 0-1.5-.7-1.5-1.5s.7-1.5 1.5-1.5h107c.8 0 1.5.7 1.5 1.5s-.7 1.5-1.5 1.5M104.502 23.977h-40c-.8 0-1.5-.7-1.5-1.5v-9c0-.8.7-1.5 1.5-1.5h40c.8 0 1.5.7 1.5 1.5v9c0 .8-.7 1.5-1.5 1.5m-38.5-3h37v-6h-37zM89.502 94.977c-.8 0-1.5-.7-1.5-1.5v-5c0-.8.7-1.5 1.5-1.5s1.5.7 1.5 1.5v5c0 .8-.7 1.5-1.5 1.5M79.502 94.977c-.8 0-1.5-.7-1.5-1.5v-5c0-.8.7-1.5 1.5-1.5s1.5.7 1.5 1.5v5c0 .8-.7 1.5-1.5 1.5M66.1 69.577c-.5 0-1-.2-1.3-.7l-18.2-28.1c-.2-.3-.3-.8-.2-1.2s.3-.7.7-.9l9.6-5.7c.4-.2.8-.3 1.2-.2s.7.4.9.7l6.3 11.6c.4.7.1 1.6-.6 2s-1.6.1-2-.6l-5.6-10.3-6.9 4.1 17.3 26.8c.4.7.3 1.6-.4 2.1-.3.3-.6.4-.8.4"/><path fill="#3B4256" d="M47.902 41.477h-.4c-.4-.1-.7-.3-.9-.7l-6.8-11.5c-.4-.7-.2-1.6.5-2.1l9.6-5.7c.3-.2.8-.3 1.1-.2.4.1.7.3.9.7l6.8 11.5c.4.7.2 1.6-.5 2.1l-9.6 5.7c-.2.1-.4.2-.7.2m-4.8-12.4 5.3 8.9 7-4.2-5.3-8.9z"/><path fill="#3B4256" d="M42.002 29.477h-.2c-9.1-1-10.3-7.8-11.3-13.8-.2-1-.4-2.1-.6-3.1-1.4-6.6-3.6-10.2-3.6-10.3-.3-.5-.3-1.2.1-1.7s1.1-.7 1.6-.5c.4.1 9.8 3.3 13.5 5.1 3.5 1.6 14.3 7.9 9.4 18.8-.3.8-1.2 1.1-2 .8s-1.1-1.2-.8-2c3.7-8.2-4.4-13.1-8-14.9-2.2-1-6.7-2.7-9.8-3.8.8 1.9 1.7 4.5 2.4 7.8.2 1.1.4 2.2.6 3.2 1 5.9 1.9 10.5 8.7 11.3.8.1 1.4.8 1.3 1.7.1.8-.5 1.4-1.3 1.4M97.502 61.977h-26c-.8 0-1.5-.7-1.5-1.5s.7-1.5 1.5-1.5h26c.8 0 1.5.7 1.5 1.5s-.7 1.5-1.5 1.5M96.502 44.977h-26c-.8 0-1.5-.7-1.5-1.5s.7-1.5 1.5-1.5h26c.8 0 1.5.7 1.5 1.5s-.7 1.5-1.5 1.5"/><path fill="#FC5130" d="M54.502 95.977a9.5 9.5 0 1 0 0-19 9.5 9.5 0 0 0 0 19"/><path fill="#8FBBF5" d="M27.502 88.977a9.5 9.5 0 1 0 0-19 9.5 9.5 0 0 0 0 19"/></svg>