<svg xmlns="http://www.w3.org/2000/svg" width="54" height="54" fill="none"><circle cx="27" cy="27" r="25.5" fill="#FC5130" stroke="#080234" stroke-width="3"/><path fill="#080234" d="M23.305 36q-.624 0-.986-.336-.337-.36-.34-.96-.002-.624.332-.936.36-.312.983-.312h2.688l-.049-11.784h1.488l-3.52 2.136q-.454.264-.862.216a1.35 1.35 0 0 1-.674-.336 1.54 1.54 0 0 1-.362-.672 1.26 1.26 0 0 1 .044-.768q.166-.408.622-.672l3.303-1.992q.48-.288.958-.48.48-.216.887-.216.505 0 .842.288.337.264.34.888l.055 13.392h2.448q.624 0 .961.312.361.312.364.936t-.356.96q-.334.336-.958.336z"/></svg>