<svg xmlns="http://www.w3.org/2000/svg" width="50" height="50" fill="none"><path fill="#AEA1C9" stroke="#080234" stroke-width="3" d="M1.5 34.971V15.03L13.924 1.5h22.152L48.5 15.029V34.97L36.076 48.5H13.924z"/><path fill="#080234" d="M27.317 33.192q-.72 0-1.13-.384-.41-.408-.412-1.152l-.008-1.872h-5.928q-.744 0-1.201-.312-.435-.312-.436-.984a2.2 2.2 0 0 1 .188-.84q.215-.456.74-1.2l6.536-9.528q.334-.504.74-.768a1.7 1.7 0 0 1 .935-.264q.624 0 1.034.384.409.36.413 1.152l.04 9.816h1.176q.696 0 1.034.336.36.312.364.936.002.624-.356.96-.335.312-1.031.312h-1.176l.008 1.872q.003.744-.404 1.152-.405.384-1.126.384m-1.56-5.952-.032-7.488h.696l-5.63 8.304-.003-.816z"/></svg>