<svg xmlns="http://www.w3.org/2000/svg" width="112" height="107" fill="none"><path fill="#8FBBF5" d="M57.614 71.724a3.09 3.09 0 0 0-2.9.003L34.406 82.443c-2.29 1.22-4.972-.715-4.535-3.273l3.848-22.65a3.18 3.18 0 0 0-.901-2.754l-16.481-16.01a3.04 3.04 0 0 1-.49-3.83c4.41 5.004 21.942 14.392 23.384 18.802 2.142 6.56-7.887 23.13-5.176 25.874S51.66 64.56 56.577 62.954 77.18 82.05 78.903 78.602c.772-1.542-6.932-20.42-6.9-25.874.029-3.583 14.911-12.2 24.15-17.25-.111.165-.133 2.014-.269 2.15l-16.416 16.07a3.05 3.05 0 0 0-.895 2.76l3.913 22.64c.447 2.54-2.235 4.486-4.513 3.291z"/><path fill="#3B4256" d="M84.338 13.246a1.608 1.608 0 0 1-1.291-2.564l6.327-8.548a1.607 1.607 0 0 1 2.25-.337c.715.53.865 1.538.336 2.25l-6.327 8.548c-.315.426-.801.651-1.295.651M109.953 68.838c-.168 0-.343-.03-.511-.083l-10.086-3.373a1.61 1.61 0 1 1 1.022-3.054l10.087 3.373a1.61 1.61 0 0 1-.512 3.137M54.91 107h-.014a1.607 1.607 0 0 1-1.595-1.624l.093-10.633a1.61 1.61 0 0 1 1.61-1.595h.014c.89.007 1.602.733 1.595 1.624l-.093 10.633A1.61 1.61 0 0 1 54.91 107M1.61 66.448a1.61 1.61 0 0 1-.483-3.143l10.143-3.198a1.611 1.611 0 0 1 .97 3.072L2.095 66.377a1.8 1.8 0 0 1-.486.071M29.882 11.88a1.61 1.61 0 0 1-1.313-.676l-6.173-8.66A1.613 1.613 0 0 1 22.772.3a1.613 1.613 0 0 1 2.246.375l6.173 8.66a1.614 1.614 0 0 1-1.309 2.546M78.859 85.125a4.75 4.75 0 0 1-2.203-.547l-20.333-10.69a1.5 1.5 0 0 0-1.406 0l-20.333 10.69a4.7 4.7 0 0 1-4.979-.361 4.7 4.7 0 0 1-1.881-4.625l3.884-22.64a1.5 1.5 0 0 0-.433-1.334L14.723 39.584a4.7 4.7 0 0 1-1.198-4.846 4.7 4.7 0 0 1 3.816-3.22l22.733-3.304c.494-.072.916-.38 1.137-.826L51.376 6.79a4.7 4.7 0 0 1 4.238-2.636 4.7 4.7 0 0 1 4.239 2.636l10.164 20.598c.222.447.644.754 1.138.826l22.733 3.305a4.7 4.7 0 0 1 3.816 3.219c.562 1.724.1 3.58-1.194 4.846L80.06 55.618a1.51 1.51 0 0 0-.432 1.338l3.884 22.64a4.7 4.7 0 0 1-1.881 4.624c-.826.601-1.796.905-2.772.905M55.618 70.497c.755 0 1.513.182 2.2.544L78.15 81.73a1.49 1.49 0 0 0 1.588-.114c.475-.347.7-.898.6-1.478L76.456 57.5a4.74 4.74 0 0 1 1.36-4.184L94.263 37.28c.422-.411.562-.987.383-1.549a1.48 1.48 0 0 0-1.22-1.026L70.695 31.4a4.72 4.72 0 0 1-3.56-2.586L56.97 8.214a1.48 1.48 0 0 0-1.352-.841c-.587 0-1.095.315-1.352.84L44.101 28.812a4.73 4.73 0 0 1-3.559 2.586L17.81 34.702a1.48 1.48 0 0 0-1.22 1.026 1.48 1.48 0 0 0 .384 1.55L33.42 53.31a4.72 4.72 0 0 1 1.36 4.185l-3.885 22.64c-.1.58.125 1.13.601 1.477s1.07.386 1.588.115l20.333-10.691a4.74 4.74 0 0 1 2.2-.54"/></svg>