<svg width="82" height="128" viewBox="0 0 82 128" fill="none" xmlns="http://www.w3.org/2000/svg">
<path d="M33.5214 7.71588e-05C37.9397 0.0118278 41.5119 3.60306 41.5001 8.02133C41.4884 12.4396 37.8971 16.0118 33.4789 16C29.0606 15.9883 25.4884 12.397 25.5002 7.97877C25.5119 3.56051 29.1031 -0.0116734 33.5214 7.71588e-05ZM1.41611 126.498C0.588982 126.451 -0.043918 125.743 0.00248677 124.916L0.758696 111.437C0.805101 110.61 1.51324 109.977 2.34036 110.024C3.16749 110.07 3.80039 110.778 3.75399 111.605L3.0818 123.586L15.063 124.259C15.8901 124.305 16.523 125.013 16.4766 125.84C16.4302 126.667 15.722 127.3 14.8949 127.254L1.41611 126.498ZM32.0807 97.6685L31.0811 96.5501L32.0807 97.6685ZM40.3452 13.2515C40.862 13.8989 40.7562 14.8428 40.1087 15.3596C39.4613 15.8765 38.5175 15.7706 38.0006 15.1232L39.1729 14.1874L40.3452 13.2515ZM46.3261 29.1623C46.0062 28.3981 46.3663 27.5193 47.1305 27.1994C47.8946 26.8795 48.7735 27.2396 49.0934 28.0038L47.7097 28.583L46.3261 29.1623ZM53.4755 44.5861C53.5754 45.4085 52.9897 46.1562 52.1673 46.256C51.3449 46.3559 50.5973 45.7702 50.4974 44.9478L51.9865 44.767L53.4755 44.5861ZM50.2389 61.2773C50.3648 60.4584 51.1306 59.8967 51.9494 60.0226C52.7682 60.1484 53.3299 60.9142 53.2041 61.733L51.7215 61.5051L50.2389 61.2773ZM48.2993 78.1684C47.9553 78.922 47.0656 79.2542 46.3119 78.9102C45.5582 78.5663 45.2261 77.6765 45.57 76.9229L46.9347 77.5456L48.2993 78.1684ZM36.8044 90.6914C37.3415 90.0607 38.2882 89.9847 38.9189 90.5218C39.5497 91.0589 39.6256 92.0056 39.0885 92.6363L37.9465 91.6639L36.8044 90.6914ZM25.4351 105.62C24.8175 106.172 23.8692 106.119 23.3171 105.501C22.7651 104.883 22.8183 103.935 23.436 103.383L24.4356 104.501L25.4351 105.62ZM8.14569 117.049C8.76337 116.497 9.71163 116.55 10.2637 117.168C10.8157 117.785 10.7625 118.733 10.1449 119.286L9.14527 118.167L8.14569 117.049ZM33.5001 8.00005L34.5346 6.91384C36.6434 8.92219 38.5802 11.0407 40.3452 13.2515L39.1729 14.1874L38.0006 15.1232C36.3205 13.0186 34.4757 11.0005 32.4657 9.08626L33.5001 8.00005ZM47.7097 28.583L49.0934 28.0038C51.3287 33.3433 52.7884 38.928 53.4755 44.5861L51.9865 44.767L50.4974 44.9478C49.843 39.5598 48.4533 34.2435 46.3261 29.1623L47.7097 28.583ZM51.7215 61.5051L53.2041 61.733C52.3382 67.3665 50.7025 72.9023 48.2993 78.1684L46.9347 77.5456L45.57 76.9229C47.857 71.9115 49.4143 66.6419 50.2389 61.2773L51.7215 61.5051ZM37.9465 91.6639L39.0885 92.6363C37.2545 94.7902 35.2516 96.8463 33.0803 98.7869L32.0807 97.6685L31.0811 96.5501C33.1507 94.7004 35.0585 92.7418 36.8044 90.6914L37.9465 91.6639ZM32.0807 97.6685L33.0803 98.7869L25.4351 105.62L24.4356 104.501L23.436 103.383L31.0811 96.5501L32.0807 97.6685ZM9.14527 118.167L10.1449 119.286L2.49971 126.118L1.50013 125L0.50055 123.882L8.14569 117.049L9.14527 118.167Z" fill="#AEA1C9"/>
<circle cx="4" cy="4" r="4" transform="matrix(-1 0 0 1 37.5002 3)" fill="#AEA1C9"/>
</svg>
