<svg xmlns="http://www.w3.org/2000/svg" width="188" height="81" fill="none"><path fill="#AEA1C9" d="M185.907 3.71a8 8 0 1 1-12.816 9.58 8 8 0 0 1 12.816-9.58M7.527 80.905a1.5 1.5 0 0 1-1.93-.88L.872 67.378a1.5 1.5 0 0 1 2.81-1.05L7.882 77.57l11.241-4.199a1.5 1.5 0 1 1 1.05 2.81zM143.5 24l.041 1.5zm-69.998-7-.202-1.487zm98.826-1.265a1.5 1.5 0 1 1-1.619-2.526zm-19.333 5.399a1.5 1.5 0 0 1 .74 2.907zm-18.43 4.327a1.5 1.5 0 0 1 .119-2.998zm-17.12-5.33a1.5 1.5 0 1 1-.709 2.914zm-17.756-1.629a1.5 1.5 0 0 1 .571-2.945zm-17.459-3.9a1.5 1.5 0 1 1 .19 2.994zm-15.99 5.524a1.5 1.5 0 0 1-.872-2.87zm-15.505 3.9a1.5 1.5 0 0 1 1.589 2.546zM40.065 36.02a1.5 1.5 0 1 1-2.032-2.207zm-12.999 9.4a1.5 1.5 0 0 1 2.307 1.919zm-7.032 14.436a1.5 1.5 0 1 1-2.49-1.673zM9.281 71.763a1.5 1.5 0 1 1 2.631 1.441zM179.5 8.5l1.02 1.1h-.001l-.001.002-.002.002-.009.008-.031.028-.113.102q-.147.133-.427.376a52 52 0 0 1-1.62 1.341 72 72 0 0 1-5.987 4.276l-1.619-2.526a70 70 0 0 0 5.737-4.096 50 50 0 0 0 1.914-1.604l.094-.085.021-.02.005-.004zm-25.764 15.541c-3.228.822-6.649 1.361-10.194 1.458l-.082-2.998c3.294-.09 6.493-.593 9.536-1.367zM143.541 25.5c-3.275.09-6.25.07-8.976-.038l.119-2.998c2.655.105 5.562.125 8.775.038zm-26.805-2.454c-3.166-.77-5.986-1.63-8.711-2.428-2.738-.801-5.4-1.545-8.336-2.115l.571-2.945c3.08.598 5.852 1.375 8.607 2.18 2.767.81 5.497 1.645 8.578 2.393zm-34.316-5.45c-2.628.168-5.514.456-8.716.891l-.404-2.973a126 126 0 0 1 8.93-.911zm-8.716.891a48 48 0 0 0-7.463 1.64l-.873-2.87a51 51 0 0 1 7.932-1.743zm-21.38 8.086c-4.357 2.719-8.452 5.942-12.26 9.447l-2.032-2.207c3.92-3.608 8.162-6.951 12.703-9.785zM29.373 47.338c-3.521 4.232-6.645 8.51-9.339 12.517l-2.49-1.673c2.74-4.077 5.925-8.439 9.522-12.763zm-17.46 25.866a144 144 0 0 0-2.654 5.068 89 89 0 0 0-.89 1.845l-.003.005-1.365-.622-1.364-.623.001-.003.003-.007.013-.026a27 27 0 0 1 .223-.476c.156-.33.389-.811.695-1.427.612-1.233 1.52-3.005 2.71-5.175z"/></svg>