<svg width="222" height="71" viewBox="0 0 222 71" fill="none" xmlns="http://www.w3.org/2000/svg">
<g clip-path="url(#clip0_10672_1371)">
<path d="M219.659 5.55516C221.764 9.44001 220.32 14.2954 216.435 16.3999C212.551 18.5045 207.695 17.0612 205.591 13.1764C203.486 9.29154 204.929 4.43617 208.814 2.33163C212.699 0.227082 217.554 1.6703 219.659 5.55516ZM3.47051 67.9997C2.64225 67.9834 1.98401 67.2988 2.0003 66.4705L2.26568 52.9731C2.28197 52.1448 2.96662 51.4866 3.79488 51.5029C4.62314 51.5192 5.28139 52.2038 5.26509 53.0321L5.0292 65.0298L17.0269 65.2657C17.8552 65.282 18.5134 65.9666 18.4971 66.7949C18.4808 67.6231 17.7962 68.2814 16.9679 68.2651L3.47051 67.9997ZM173.218 38.4128L173.218 36.9128L173.218 38.4128ZM93.7176 19.4839L93.7333 17.984L93.7176 19.4839ZM210.481 15.6349C210.012 16.3174 209.078 16.4901 208.395 16.0205C207.713 15.551 207.54 14.6171 208.01 13.9346L209.246 14.7847L210.481 15.6349ZM200.086 23.6355C200.665 23.0423 201.614 23.0302 202.208 23.6084C202.801 24.1867 202.813 25.1363 202.235 25.7296L201.161 24.6825L200.086 23.6355ZM192.101 34.0656C191.401 34.5079 190.474 34.2985 190.032 33.598C189.59 32.8975 189.799 31.9711 190.5 31.5289L191.301 32.7972L192.101 34.0656ZM179.252 36.2649C180.062 36.0905 180.86 36.6057 181.034 37.4156C181.209 38.2254 180.694 39.0233 179.884 39.1977L179.568 37.7313L179.252 36.2649ZM166.226 39.7927C165.398 39.7632 164.751 39.068 164.78 38.2401C164.81 37.4122 165.505 36.7651 166.333 36.7946L166.279 38.2937L166.226 39.7927ZM152.772 35.6663C153.592 35.7814 154.164 36.5398 154.049 37.3602C153.934 38.1805 153.176 38.7523 152.355 38.6372L152.564 37.1517L152.772 35.6663ZM138.655 35.5787C137.867 35.3236 137.434 34.4778 137.69 33.6897C137.945 32.9015 138.791 32.4694 139.579 32.7245L139.117 34.1516L138.655 35.5787ZM127.203 27.2937C127.934 27.6834 128.211 28.5919 127.822 29.3229C127.432 30.054 126.523 30.3308 125.792 29.9412L126.498 28.6174L127.203 27.2937ZM113.572 24.0691C112.792 23.7902 112.385 22.9317 112.664 22.1517C112.943 21.3716 113.802 20.9653 114.582 21.2442L114.077 22.6566L113.572 24.0691ZM100.762 18.3244C101.587 18.3996 102.195 19.1294 102.12 19.9544C102.045 20.7794 101.315 21.3873 100.49 21.3121L100.626 19.8182L100.762 18.3244ZM85.3037 21.5413C84.483 21.6545 83.726 21.081 83.6128 20.2603C83.4996 19.4397 84.0731 18.6826 84.8937 18.5694L85.0987 20.0554L85.3037 21.5413ZM67.8548 22.8968C68.6346 22.6172 69.4934 23.0227 69.7731 23.8025C70.0527 24.5823 69.6472 25.4411 68.8674 25.7207L68.3611 24.3088L67.8548 22.8968ZM53.229 32.6195C52.4933 33.0004 51.5882 32.7128 51.2073 31.9771C50.8264 31.2414 51.114 30.3363 51.8497 29.9554L52.5393 31.2874L53.229 32.6195ZM36.7768 38.7273C37.4735 38.2791 38.4017 38.4805 38.8499 39.1772C39.2981 39.8739 39.0966 40.8021 38.3999 41.2503L37.5884 39.9888L36.7768 38.7273ZM24.3023 51.0898C23.6402 51.5876 22.6998 51.4544 22.202 50.7923C21.7042 50.1301 21.8374 49.1897 22.4996 48.6919L23.401 49.8909L24.3023 51.0898ZM8.95512 59.5888C9.58295 59.0483 10.5301 59.1192 11.0705 59.747C11.611 60.3748 11.5402 61.3219 10.9124 61.8624L9.93375 60.7256L8.95512 59.5888ZM212.625 9.36577C213.95 10.0687 213.95 10.0688 213.95 10.0689C213.95 10.069 213.95 10.0691 213.95 10.0692C213.95 10.0694 213.949 10.0697 213.949 10.07C213.949 10.0706 213.949 10.0713 213.948 10.0721C213.947 10.0738 213.946 10.076 213.945 10.0788C213.942 10.0843 213.938 10.092 213.932 10.1018C213.922 10.1213 213.907 10.1492 213.887 10.1852C213.848 10.2571 213.79 10.3614 213.715 10.4957C213.564 10.7642 213.342 11.1526 213.05 11.6418C212.467 12.6199 211.605 14.0022 210.481 15.6349L209.246 14.7847L208.01 13.9346C209.092 12.362 209.919 11.0349 210.474 10.1048C210.751 9.63987 210.96 9.27454 211.099 9.0278C211.168 8.90444 211.22 8.81076 211.253 8.74915C211.27 8.71834 211.282 8.69554 211.29 8.68107C211.294 8.67383 211.297 8.66867 211.298 8.66563C211.299 8.66411 211.3 8.66312 211.3 8.66266C211.3 8.66243 211.3 8.66234 211.3 8.66237C211.3 8.66239 211.3 8.66245 211.3 8.66253C211.3 8.66258 211.3 8.66267 211.3 8.66269C211.3 8.66279 211.3 8.66289 212.625 9.36577ZM201.161 24.6825L202.235 25.7296C199.345 28.6944 195.949 31.6362 192.101 34.0656L191.301 32.7972L190.5 31.5289C194.103 29.2539 197.318 26.4755 200.086 23.6355L201.161 24.6825ZM179.568 37.7313L179.884 39.1977C177.743 39.6585 175.519 39.9128 173.218 39.9128L173.218 38.4128L173.218 36.9128C175.296 36.9128 177.309 36.6833 179.252 36.2649L179.568 37.7313ZM173.218 38.4128L173.218 39.9128C170.759 39.9128 168.432 39.8715 166.226 39.7927L166.279 38.2937L166.333 36.7946C168.501 36.8721 170.792 36.9128 173.218 36.9128L173.218 38.4128ZM152.564 37.1517L152.355 38.6372C146.916 37.8741 142.468 36.8132 138.655 35.5787L139.117 34.1516L139.579 32.7245C143.216 33.9018 147.493 34.9256 152.772 35.6663L152.564 37.1517ZM126.498 28.6174L125.792 29.9412C121.69 27.7547 118.096 25.6864 113.572 24.0691L114.077 22.6566L114.582 21.2442C119.366 22.9547 123.201 25.1605 127.203 27.2937L126.498 28.6174ZM100.626 19.8182L100.49 21.3121C98.423 21.1237 96.1725 21.0097 93.7018 20.9838L93.7176 19.4839L93.7333 17.984C96.2769 18.0107 98.6082 18.1281 100.762 18.3244L100.626 19.8182ZM93.7176 19.4839L93.7018 20.9838C90.9446 20.9549 88.1392 21.1502 85.3037 21.5413L85.0987 20.0554L84.8937 18.5694C87.8601 18.1603 90.8136 17.9533 93.7333 17.984L93.7176 19.4839ZM68.3611 24.3088L68.8674 25.7207C63.5746 27.6185 58.322 29.9826 53.229 32.6195L52.5393 31.2874L51.8497 29.9554C57.0376 27.2693 62.4136 24.8478 67.8548 22.8968L68.3611 24.3088ZM37.5884 39.9888L38.3999 41.2503C33.2913 44.5368 28.538 47.9054 24.3023 51.0898L23.401 49.8909L22.4996 48.6919C26.7836 45.4711 31.5971 42.0595 36.7768 38.7273L37.5884 39.9888ZM9.93375 60.7256L10.9124 61.8624C8.88005 63.612 7.28287 65.0455 6.19561 66.0399C5.65201 66.5371 5.23598 66.9244 4.95683 67.1865C4.81727 67.3175 4.71193 67.4172 4.642 67.4836C4.60704 67.5168 4.58093 67.5418 4.56382 67.5581C4.55525 67.5663 4.54895 67.5723 4.5449 67.5762C4.54288 67.5782 4.54143 67.5796 4.54055 67.5804C4.54011 67.5808 4.53981 67.5811 4.53965 67.5813C4.53957 67.5813 4.53952 67.5814 4.53953 67.5814C4.53951 67.5814 4.53954 67.5814 4.53954 67.5814C4.53957 67.5813 4.5396 67.5813 3.5 66.5C2.4604 65.4187 2.46046 65.4186 2.46053 65.4186C2.46056 65.4185 2.46063 65.4185 2.4607 65.4184C2.46083 65.4183 2.461 65.4181 2.46121 65.4179C2.46163 65.4175 2.46218 65.417 2.46289 65.4163C2.46428 65.415 2.46626 65.4131 2.46879 65.4106C2.47387 65.4058 2.48123 65.3987 2.49084 65.3895C2.51006 65.3712 2.5383 65.3442 2.57542 65.3089C2.64967 65.2384 2.75942 65.1345 2.90352 64.9992C3.19171 64.7287 3.61731 64.3325 4.17094 63.8262C5.27816 62.8135 6.89786 61.3599 8.95512 59.5888L9.93375 60.7256Z" fill="#8FBBF5"/>
</g>
<defs>
<clipPath id="clip0_10672_1371">
<rect width="222" height="71" fill="white"/>
</clipPath>
</defs>
</svg>
