<svg xmlns="http://www.w3.org/2000/svg" width="108" height="34" fill="none"><path fill="#AEA1C9" d="M.832 27.23a8 8 0 1 1 15.773-2.684A8 8 0 0 1 .832 27.23m104.747-6.929a1.5 1.5 0 0 1-1.695 1.276l-13.367-1.888a1.5 1.5 0 0 1 .42-2.97l11.882 1.677 1.677-11.882a1.5 1.5 0 0 1 2.971.42zM45.716 2.57l-.231-1.482zM10.9 20.396a1.5 1.5 0 1 1 2.295 1.932zm10.172-5.635a1.5 1.5 0 0 1-1.846-2.365zm7.93-8.499a1.5 1.5 0 1 1 1.324 2.692zM40.574 5.16a1.5 1.5 0 0 1-.751-2.905zM53.529.188a1.5 1.5 0 0 1 .198 2.994zm15.75 3.547A1.5 1.5 0 1 1 69.71.766zm16.1 1.325a1.5 1.5 0 1 1-1.157 2.768zm12.108 10.642a1.5 1.5 0 0 1 1.894-2.327zM8.719 25.888l-1.297-.754.001-.002.005-.009.058-.097.168-.27c.147-.232.363-.564.65-.98a45 45 0 0 1 2.596-3.38l2.295 1.932a42 42 0 0 0-2.422 3.153 26 26 0 0 0-.752 1.151l-.006.01v.002-.001zm10.507-13.492a56.3 56.3 0 0 1 9.775-6.134l1.325 2.692a53.3 53.3 0 0 0-9.254 5.807zM39.824 2.255a59 59 0 0 1 5.66-1.168l.463 2.964c-1.87.292-3.66.666-5.373 1.109zm5.66-1.168A91 91 0 0 1 53.53.188l.198 2.994c-2.49.164-5.083.449-7.78.87zm24.227-.32c6.015.876 11.228 2.437 15.668 4.293l-1.157 2.768c-4.22-1.764-9.19-3.255-14.944-4.093zm29.67 12.608a45 45 0 0 1 4.411 4.08c.489.522.857.946 1.106 1.244a14 14 0 0 1 .362.448l.022.028.007.009.002.003.001.001v.001l-1.198.902-1.198.903h.001v.001l-.001-.001-.011-.014-.053-.068q-.075-.095-.235-.288a27 27 0 0 0-.993-1.116 42 42 0 0 0-4.117-3.806z"/></svg>