<svg xmlns="http://www.w3.org/2000/svg" width="236" height="72" fill="none"><path fill="#AEA1C9" d="M234.762 4.68a8 8 0 1 1-13.597 8.436 8 8 0 0 1 13.597-8.435M3.096 71.498a1.5 1.5 0 0 1-1.593-1.4L.634 56.625a1.5 1.5 0 0 1 2.994-.194L4.4 68.407l11.975-.772a1.5 1.5 0 1 1 .194 2.993zM178.001 47v1.5zm-99-19-.073-1.498zm144.918-11.977a1.5 1.5 0 0 1-2.254-1.98zm-13.226 9.595a1.5 1.5 0 1 1 2.091 2.151zM200.53 38.44a1.5 1.5 0 0 1-1.815-2.39zm-15.239 5.532a1.5 1.5 0 1 1 1.069 2.803zm-15.828 4.315a1.5 1.5 0 1 1 .153-2.996zm-16.479-4.803a1.5 1.5 0 1 1-.504 2.957zm-17.133-.93a1.5 1.5 0 1 1 .848-2.878zm-15.11-8.209a1.5 1.5 0 0 1-.999 2.829zm-16.977-2.265a1.5 1.5 0 1 1 .746-2.906zm-16.221-5.57a1.5 1.5 0 1 1-.157 2.996zM71.87 30.245a1.5 1.5 0 0 1-.467-2.963zm-15.058.778a1.5 1.5 0 0 1 .996 2.83zM44.447 39.7a1.5 1.5 0 1 1-1.387-2.66zM30.21 44.717a1.5 1.5 0 1 1 1.676 2.489zm-10.092 11.26a1.5 1.5 0 0 1-1.9-2.322zM7.079 63.618a1.5 1.5 0 0 1 2.099 2.144zm220.885-54.72 1.177.93-.002.002-.005.006-.018.023-.07.087-.269.336c-.237.293-.584.72-1.033 1.262-.898 1.085-2.2 2.63-3.825 4.478l-2.254-1.98a199 199 0 0 0 3.768-4.41 125 125 0 0 0 1.269-1.557l.065-.082.015-.02.004-.004.001-.001zm-15.18 18.87c-3.766 3.662-7.946 7.4-12.254 10.671l-1.815-2.39c4.184-3.176 8.27-6.827 11.978-10.432zM186.36 46.775c-2.831 1.08-5.65 1.725-8.359 1.725v-3c2.242 0 4.691-.537 7.29-1.528zm-8.359 1.725c-2.968 0-5.81-.074-8.538-.213l.153-2.996c2.676.136 5.467.209 8.385.209zM152.48 46.44c-6.1-1.038-11.566-2.394-16.629-3.887l.848-2.878c4.972 1.466 10.321 2.792 16.285 3.808zm-32.738-9.267c-5.411-1.911-10.579-3.707-15.978-5.094l.746-2.906c5.543 1.424 10.827 3.262 16.231 5.171zm-32.356-7.667a83 83 0 0 0-8.313-.009l-.145-2.996a86 86 0 0 1 8.615.009zm-8.313-.009c-2.42.117-4.823.371-7.202.746l-.467-2.963c2.48-.391 4.99-.657 7.524-.78zm-21.264 4.354c-4.634 1.632-9.107 3.63-13.362 5.848l-1.387-2.66c4.363-2.274 8.967-4.332 13.753-6.018zM31.886 47.206a158 158 0 0 0-11.768 8.77l-1.9-2.321a161 161 0 0 1 11.992-8.938zM9.178 65.763a132 132 0 0 0-3.76 3.822 80 80 0 0 0-1.288 1.401l-.003.004L3 70l-1.127-.99.001-.001.002-.002.005-.006.085-.096.26-.289a84 84 0 0 1 1.008-1.087c.882-.937 2.178-2.279 3.845-3.91z"/></svg>