<svg xmlns="http://www.w3.org/2000/svg" width="196" height="70" fill="none"><path fill="#8FBBF5" d="M194.106 4.96a8 8 0 1 1-14.067 7.62 8 8 0 0 1 14.067-7.62M6.969 69.426a1.5 1.5 0 0 1-1.894-.956L.85 55.648a1.5 1.5 0 0 1 2.85-.94l3.755 11.398 11.397-3.756a1.5 1.5 0 0 1 .94 2.85zM149.206 18.89l-.177 1.49zM80.962 1.818l.016-1.5zm97.966 13.072a1.5 1.5 0 1 1-1.236-2.733zm-19.912 2.54a1.5 1.5 0 0 1 .311 2.984zm-18.862 1.61a1.5 1.5 0 0 1 .552-2.949zm-16.167-7.756a1.5 1.5 0 0 1-1.123 2.782zM106.654 7.1a1.5 1.5 0 0 1 .993-2.831zM89.946.71A1.5 1.5 0 0 1 89.7 3.7zM72.673 4.163a1.5 1.5 0 0 1-.624-2.935zM55.62 7.91a1.5 1.5 0 1 1 1.537 2.577zM43.582 20.722a1.5 1.5 0 0 1-2.019-2.22zM29.448 31.145a1.5 1.5 0 1 1 2.288 1.94zm-8.18 15.575a1.5 1.5 0 0 1-2.46-1.718zM9.39 59.693a1.5 1.5 0 0 1 2.588 1.517zM187.072 8.772l.849 1.236-.001.001-.003.002-.01.007-.035.023-.126.085q-.166.11-.477.31c-.415.264-1.021.64-1.797 1.092a72 72 0 0 1-6.544 3.362l-1.236-2.733a70 70 0 0 0 6.27-3.222 50 50 0 0 0 2.126-1.31l.106-.07.024-.016.005-.004zm-27.745 11.642c-3.313.345-6.776.383-10.298-.035l.354-2.979c3.273.389 6.51.356 9.633.03zm-10.298-.035a134 134 0 0 1-8.875-1.339l.552-2.949c2.611.49 5.485.93 8.677 1.31zm-26.165-6.313c-3.022-1.22-5.687-2.48-8.268-3.665-2.593-1.19-5.119-2.311-7.942-3.3l.993-2.832c2.96 1.038 5.591 2.208 8.2 3.405 2.62 1.202 5.201 2.423 8.14 3.61zM89.7 3.7a123 123 0 0 0-8.754-.383l.032-3c3.294.035 6.264.17 8.968.393zm-8.754-.383a37.8 37.8 0 0 0-8.273.846l-.624-2.935a40.8 40.8 0 0 1 8.929-.91zm-23.79 7.17c-4.745 2.83-9.29 6.34-13.574 10.235l-2.019-2.22c4.397-3.998 9.103-7.637 14.057-10.592zm-25.42 22.599c-3.893 4.588-7.407 9.254-10.469 13.634l-2.459-1.718c3.105-4.443 6.676-9.185 10.64-13.857zM11.979 61.21a182 182 0 0 0-3.083 5.462 115 115 0 0 0-1.056 2.002v.001L6.5 68l-1.34-.676h.001l.001-.003.004-.007.014-.028a37 37 0 0 1 .263-.509c.184-.353.456-.87.814-1.531.715-1.323 1.77-3.226 3.134-5.553z"/></svg>