<svg xmlns="http://www.w3.org/2000/svg" width="137" height="149" fill="none"><mask id="mask0_8650_13566" width="137" height="149" x="0" y="0" maskUnits="userSpaceOnUse" style="mask-type:alpha"><rect width="137" height="149" fill="#fff" rx="4"/></mask><g mask="url('#mask0_8650_13566')"><path fill="#DBE5F1" d="M108.591 47.16c1.569-8.495 1.863-17.183-.843-25.255C101.639 3.861 80.191-8.312 56.96-10.356 33.728-12.401 9.432-5.373-10.824 5.82c-12.039 6.632-23.364 15.237-28.282 26.235-3.98 8.763-3.464 18.117-1.722 26.992 9.816 50.355 57.183 89.146 117.276 41.551 17.97-14.282 28.524-33.853 32.143-53.439"/><path fill="#AEA1C9" fill-rule="evenodd" d="M50.433 35.176a17.44 17.44 0 0 0-17.677 17.66c.09 9.846 8.148 17.905 18 18a17.44 17.44 0 0 0 17.677-17.66c-.09-9.847-8.148-17.906-18-18M28.297 52.793a21.8 21.8 0 0 1 22.096-22.074c12.315.117 22.388 10.19 22.5 22.5a21.8 21.8 0 0 1-22.096 22.074c-12.315-.118-22.389-10.192-22.5-22.5" clip-rule="evenodd"/><path fill="#AEA1C9" fill-rule="evenodd" d="M50.494 41.862a2.28 2.28 0 0 1 2.25 2.25l.08 8.915a2.18 2.18 0 0 1-2.21 2.207 2.28 2.28 0 0 1-2.25-2.25l-.08-8.915a2.18 2.18 0 0 1 2.21-2.207m-2.048 20.037a2.18 2.18 0 0 1 2.21-2.207h.021a2.28 2.28 0 0 1 2.25 2.25 2.18 2.18 0 0 1-2.21 2.207h-.021a2.28 2.28 0 0 1-2.25-2.25" clip-rule="evenodd"/></g></svg>