<svg width="212" height="234" fill="none" xmlns="http://www.w3.org/2000/svg"><path d="M108.061 218.552a5.988 5.988 0 0 0 3.398.945c5.409-.154 10.965 3.315 13.221 8.244a6.011 6.011 0 0 0 7.148 3.266 6 6 0 0 0 4.253-6.61c-.703-4.942.641-10.519 3.79-15.687 2.758-4.539 6.767-8.751 12.607-13.262a6.003 6.003 0 0 0-7.344-9.499c-6.943 5.359-12.015 10.766-15.515 16.517-1.774 2.914-3.151 5.951-4.101 9.024-4.303-2.665-9.33-4.143-14.387-4.002a6 6 0 0 0-5.833 6.167 5.98 5.98 0 0 0 2.763 4.897Zm56.841-92.251c-1.81 0-3.57-.82-4.74-2.31-12.09-15.51-30.91-27.95-52.99-35.02-3.16-1.01-4.9-4.39-3.88-7.54 1.01-3.16 4.39-4.89 7.54-3.89 18.5 5.92 35 15.35 47.8 27.17 1.14-36.93 14.95-69.9 42.77-102.6a6.003 6.003 0 0 1 8.46-.68 6.003 6.003 0 0 1 .68 8.46c-30.03 35.31-42.26 69.25-39.66 110.04.17 2.63-1.4 5.06-3.86 5.99-.69.25-1.41.38-2.12.38ZM28.141 181.319a5.91 5.91 0 0 1-2.597-.592 6.014 6.014 0 0 1-3.42-5.185c-.322-7.893-5.878-24.342-17.282-26.619a6.019 6.019 0 0 1-4.724-7.081 6.014 6.014 0 0 1 7.081-4.724c13.881 2.768 22.246 16.178 25.466 28.404 8.555-4.252 19.488-7.051 30.41-5.035a6.016 6.016 0 0 1 4.824 7.011 6.017 6.017 0 0 1-7.01 4.825c-11.013-2.037-22.588 2.938-29.167 7.813a6.013 6.013 0 0 1-3.58 1.183Z" fill="#fff"/></svg>