<svg width="28" height="136" viewBox="0 0 28 136" fill="none" xmlns="http://www.w3.org/2000/svg">
<rect x="0.92558" y="0.929456" width="25.8443" height="25.4539" rx="4.02768" transform="matrix(1 0 -0.00417858 0.999991 0.11802 8.08839e-06)" fill="#8FBBF5"/>
<rect x="0.92558" y="0.929456" width="25.8443" height="25.4539" rx="4.02768" transform="matrix(1 0 -0.00417858 0.999991 0.11802 8.08839e-06)" stroke="#2E1464" stroke-width="1.85893"/>
<path d="M13.9222 19.4862C13.3967 19.4862 12.8616 19.4168 12.3169 19.278C11.7722 19.1392 11.2724 18.9261 10.8176 18.6386C10.6297 18.5196 10.5014 18.3808 10.4327 18.2222C10.3739 18.0536 10.3597 17.89 10.3901 17.7314C10.4305 17.5629 10.5054 17.4241 10.6149 17.315C10.7344 17.196 10.8735 17.1266 11.0322 17.1068C11.2008 17.087 11.384 17.1316 11.5819 17.2407C11.9478 17.4489 12.319 17.6075 12.6952 17.7165C13.0715 17.8256 13.4728 17.8801 13.8991 17.8801C14.3155 17.8801 14.6728 17.8058 14.9708 17.6571C15.2689 17.5083 15.4978 17.3001 15.6575 17.0325C15.8173 16.7648 15.8979 16.4525 15.8994 16.0956C15.9017 15.5404 15.735 15.0942 15.3993 14.7572C15.0637 14.4102 14.6034 14.2367 14.0185 14.2367C13.7012 14.2367 13.3936 14.2912 13.0958 14.4002C12.7979 14.4994 12.5047 14.6778 12.2161 14.9356C12.1265 15.0149 12.0122 15.0942 11.8731 15.1736C11.734 15.243 11.5851 15.2777 11.4265 15.2777C11.1786 15.2777 10.9905 15.2132 10.8622 15.0843C10.7338 14.9554 10.6701 14.777 10.6711 14.549L10.6914 9.68604C10.6925 9.41836 10.7628 9.21512 10.9022 9.07632C11.0515 8.92761 11.26 8.85325 11.5277 8.85325H16.4204C16.6881 8.85325 16.891 8.92265 17.0292 9.06145C17.1774 9.19033 17.251 9.38366 17.2499 9.64143C17.2489 9.88928 17.1737 10.0826 17.0244 10.2214C16.885 10.3602 16.6815 10.4296 16.4138 10.4296H12.5472L12.5333 13.7608H12.0426C12.3018 13.4138 12.6449 13.1461 13.072 12.9577C13.4991 12.7694 13.9655 12.6752 14.4711 12.6752C15.1354 12.6752 15.7098 12.8189 16.1944 13.1064C16.689 13.384 17.069 13.7757 17.3346 14.2813C17.6101 14.777 17.7465 15.357 17.7437 16.0212C17.7409 16.7053 17.5847 17.3101 17.2751 17.8355C16.9656 18.3511 16.5228 18.7575 15.9465 19.055C15.3802 19.3425 14.7054 19.4862 13.9222 19.4862Z" fill="#080234"/>
<rect x="0.92558" y="0.929456" width="25.8443" height="25.4539" rx="4.02768" transform="matrix(1 0 -0.00417858 0.999991 0.11802 81.4956)" fill="#8FBBF5"/>
<rect x="0.92558" y="0.929456" width="25.8443" height="25.4539" rx="4.02768" transform="matrix(1 0 -0.00417858 0.999991 0.11802 81.4956)" stroke="#2E1464" stroke-width="1.85893"/>
<rect x="0.92558" y="0.929456" width="25.8443" height="25.4539" rx="4.02768" transform="matrix(1 0 -0.00417858 0.999991 0.11802 108.496)" stroke="#2E1464" stroke-width="1.85893"/>
<rect x="0.92558" y="0.929456" width="25.8443" height="25.4539" rx="4.02768" transform="matrix(1 0 -0.00417858 0.999991 0.11802 54.5293)" stroke="#2E1464" stroke-width="1.85893"/>
<rect x="0.92558" y="0.929456" width="25.8443" height="25.4539" rx="4.02768" transform="matrix(1 0 -0.00417858 0.999991 0.11802 27.2642)" fill="#FC5130"/>
<rect x="0.92558" y="0.929456" width="25.8443" height="25.4539" rx="4.02768" transform="matrix(1 0 -0.00417858 0.999991 0.11802 27.2642)" stroke="#2E1464" stroke-width="1.85893"/>
</svg>
