<svg width="68" height="69" viewBox="0 0 68 69" fill="none" xmlns="http://www.w3.org/2000/svg">
<rect x="2.04288" y="0.55496" width="46.9724" height="46.6146" rx="6.5" transform="matrix(0.866715 -0.498804 0.495203 0.868777 -0.0025331 26.0183)" fill="#8FBBF5"/>
<rect x="2.04288" y="0.55496" width="46.9724" height="46.6146" rx="6.5" transform="matrix(0.866715 -0.498804 0.495203 0.868777 -0.0025331 26.0183)" stroke="#2E1464" stroke-width="3"/>
<path d="M35.9506 43.4649C35.59 43.6724 35.2503 43.7388 34.9313 43.6639C34.6183 43.5671 34.3628 43.3449 34.1647 42.9974C33.9587 42.636 33.9013 42.3091 33.9924 42.0167C34.0974 41.7162 34.3302 41.4623 34.6908 41.2548L37.0205 39.914L31.185 29.6763L32.4747 28.9341L30.4747 32.5496C30.2984 32.8541 30.0844 33.0603 29.8328 33.1682C29.5872 33.2542 29.3376 33.2686 29.084 33.2115C28.8364 33.1325 28.6214 32.9977 28.4392 32.8072C28.257 32.6168 28.144 32.3864 28.1005 32.1161C28.0629 31.8239 28.1322 31.5256 28.3085 31.221L30.1927 27.8384C30.3749 27.5119 30.573 27.2133 30.787 26.9425C30.993 26.6578 31.2139 26.4476 31.4497 26.3119C31.7409 26.1443 32.0311 26.088 32.3203 26.1431C32.6016 26.1843 32.8453 26.3856 33.0513 26.747L39.6831 38.3817L41.8048 37.1606C42.1653 36.9531 42.4942 36.8838 42.7913 36.9528C43.1023 37.0138 43.3608 37.225 43.5669 37.5864C43.7729 37.9478 43.8273 38.2857 43.7302 38.6C43.647 38.9063 43.4251 39.1633 43.0646 39.3708L35.9506 43.4649Z" fill="#080234"/>
</svg>
