<svg width="28" height="163" viewBox="0 0 28 163" fill="none" xmlns="http://www.w3.org/2000/svg">
<rect x="0.925579" y="0.929456" width="25.8527" height="25.4539" rx="4.02768" transform="matrix(1 0 -0.00417985 0.999991 0.118051 8.08839e-06)" fill="#8FBBF5"/>
<rect x="0.925579" y="0.929456" width="25.8527" height="25.4539" rx="4.02768" transform="matrix(1 0 -0.00417985 0.999991 0.118051 8.08839e-06)" stroke="#2E1464" stroke-width="1.85893"/>
<path d="M14.2196 19.4862C13.357 19.4862 12.6193 19.283 12.0063 18.8765C11.4033 18.4601 10.9447 17.8653 10.6307 17.0919C10.3167 16.3186 10.162 15.3818 10.1666 14.2813C10.1703 13.389 10.2727 12.6008 10.4739 11.9167C10.685 11.2227 10.9849 10.6378 11.3735 10.1619C11.7621 9.68604 12.2346 9.32417 12.7908 9.07632C13.357 8.82846 13.992 8.70454 14.6959 8.70454C15.1321 8.70454 15.573 8.77394 16.0186 8.91274C16.4741 9.04162 16.8996 9.2399 17.2951 9.50759C17.4533 9.60673 17.5568 9.73561 17.6057 9.89424C17.6547 10.0529 17.659 10.2115 17.6186 10.3701C17.5883 10.5188 17.5183 10.6527 17.4088 10.7716C17.3092 10.8807 17.18 10.9501 17.0212 10.9798C16.8625 10.9997 16.6892 10.9551 16.5013 10.846C16.165 10.6477 15.8484 10.5089 15.5513 10.4296C15.2542 10.3503 14.9569 10.3106 14.6595 10.3106C14.0844 10.3106 13.5981 10.4445 13.2004 10.7122C12.8027 10.9798 12.4986 11.3814 12.2882 11.9167C12.0877 12.4521 11.9857 13.1213 11.9824 13.9244L11.9777 15.0397H11.7993C11.8807 14.5341 12.0461 14.1028 12.2954 13.7459C12.5547 13.3791 12.8831 13.1015 13.2804 12.9131C13.6778 12.7148 14.1194 12.6157 14.6052 12.6157C15.21 12.6157 15.7448 12.7594 16.2095 13.047C16.6743 13.3345 17.0395 13.731 17.305 14.2367C17.5706 14.7423 17.702 15.3223 17.6993 15.9766C17.6965 16.6508 17.5452 17.2555 17.2456 17.7909C16.9559 18.3164 16.5476 18.7327 16.0209 19.0401C15.5041 19.3375 14.9037 19.4862 14.2196 19.4862ZM14.1218 17.9694C14.4787 17.9694 14.7914 17.89 15.0597 17.7314C15.338 17.5728 15.5521 17.3497 15.702 17.0622C15.8519 16.7648 15.9277 16.4277 15.9293 16.051C15.9309 15.6643 15.858 15.3272 15.7104 15.0397C15.5629 14.7522 15.3507 14.5291 15.0738 14.3705C14.8068 14.202 14.4948 14.1177 14.1379 14.1177C13.781 14.1177 13.4684 14.202 13.2 14.3705C12.9316 14.5291 12.7175 14.7522 12.5577 15.0397C12.4078 15.3272 12.332 15.6643 12.3304 16.051C12.3288 16.4277 12.4018 16.7648 12.5492 17.0622C12.7067 17.3497 12.9189 17.5728 13.1859 17.7314C13.4529 17.89 13.7649 17.9694 14.1218 17.9694Z" fill="#080234"/>
<rect x="0.925579" y="0.929456" width="25.8527" height="25.4539" rx="4.02768" transform="matrix(1 0 -0.00417985 0.999991 0.118051 135.496)" fill="#FC5130"/>
<rect x="0.925579" y="0.929456" width="25.8527" height="25.4539" rx="4.02768" transform="matrix(1 0 -0.00417985 0.999991 0.118051 135.496)" stroke="#2E1464" stroke-width="1.85893"/>
<rect x="0.925579" y="0.929456" width="25.8527" height="25.4539" rx="4.02768" transform="matrix(1 0 -0.00417985 0.999991 0.118051 81.4956)" fill="#8FBBF5"/>
<rect x="0.925579" y="0.929456" width="25.8527" height="25.4539" rx="4.02768" transform="matrix(1 0 -0.00417985 0.999991 0.118051 81.4956)" stroke="#2E1464" stroke-width="1.85893"/>
<rect x="0.925579" y="0.929456" width="25.8527" height="25.4539" rx="4.02768" transform="matrix(1 0 -0.00417985 0.999991 0.118051 108.496)" stroke="#2E1464" stroke-width="1.85893"/>
<rect x="0.925579" y="0.929456" width="25.8527" height="25.4539" rx="4.02768" transform="matrix(1 0 -0.00417985 0.999991 0.118051 54.2388)" stroke="#2E1464" stroke-width="1.85893"/>
<rect x="0.925579" y="0.929456" width="25.8527" height="25.4539" rx="4.02768" transform="matrix(1 0 -0.00417985 0.999991 0.118051 27.2642)" fill="#FC5130"/>
<rect x="0.925579" y="0.929456" width="25.8527" height="25.4539" rx="4.02768" transform="matrix(1 0 -0.00417985 0.999991 0.118051 27.2642)" stroke="#2E1464" stroke-width="1.85893"/>
</svg>
