<svg width="51" height="99" viewBox="0 0 51 99" fill="none" xmlns="http://www.w3.org/2000/svg">
<rect x="1.49378" y="1.49999" width="46.9724" height="46.6146" rx="6.5" transform="matrix(1 0 -0.00414941 0.999991 0.212035 1.28745e-05)" fill="#8FBBF5"/>
<rect x="1.49378" y="1.49999" width="46.9724" height="46.6146" rx="6.5" transform="matrix(1 0 -0.00414941 0.999991 0.212035 1.28745e-05)" stroke="#2E1464" stroke-width="3"/>
<path d="M21.5658 33.9998C21.0538 33.9998 20.6783 33.8878 20.4392 33.6638C20.2162 33.4238 20.1056 33.0798 20.1075 32.6318C20.1086 32.3598 20.1817 32.0958 20.3268 31.8398C20.4718 31.5838 20.681 31.3118 20.9542 31.0238L25.7995 25.8879C26.5386 25.1199 27.0695 24.4239 27.3921 23.7999C27.7148 23.1599 27.8774 22.5199 27.8801 21.8799C27.8834 21.0799 27.6299 20.4719 27.1197 20.0559C26.6254 19.6399 25.8983 19.4319 24.9383 19.4319C24.3943 19.4319 23.8499 19.5119 23.3053 19.6719C22.7607 19.8159 22.2076 20.0719 21.6461 20.4399C21.3573 20.6319 21.0849 20.7119 20.8291 20.6799C20.5892 20.6479 20.3736 20.5439 20.1824 20.3679C20.0071 20.1919 19.888 19.9759 19.8251 19.7199C19.7621 19.4639 19.7712 19.2079 19.8522 18.9519C19.9494 18.6799 20.1423 18.4479 20.4311 18.2559C21.1211 17.7919 21.8905 17.4399 22.7395 17.1999C23.6045 16.9599 24.469 16.8399 25.333 16.8399C26.549 16.8399 27.5722 17.0239 28.4027 17.3919C29.2332 17.7599 29.863 18.2959 30.292 18.9999C30.7211 19.7039 30.9336 20.5599 30.9294 21.5679C30.9266 22.2399 30.8119 22.8959 30.5852 23.5359C30.3746 24.1759 30.0439 24.8239 29.5932 25.4799C29.1584 26.1359 28.5875 26.8319 27.8805 27.5678L23.349 32.2718L23.3524 31.4558H30.4084C30.8404 31.4558 31.1679 31.5598 31.3911 31.7678C31.6142 31.9758 31.7249 32.2878 31.7232 32.7038C31.7215 33.1198 31.6081 33.4398 31.3832 33.6638C31.1583 33.8878 30.8298 33.9998 30.3978 33.9998H21.5658Z" fill="#080234"/>
<rect x="1.49378" y="1.49999" width="46.9724" height="46.6146" rx="6.5" transform="matrix(1 0 -0.00414941 0.999991 0.212035 49)" fill="#FC5130"/>
<rect x="1.49378" y="1.49999" width="46.9724" height="46.6146" rx="6.5" transform="matrix(1 0 -0.00414941 0.999991 0.212035 49)" stroke="#2E1464" stroke-width="3"/>
</svg>
