<svg width="89" height="132" viewBox="0 0 89 132" fill="none" xmlns="http://www.w3.org/2000/svg">
<rect x="1.49378" y="1.49999" width="41.3962" height="41.0783" rx="6.5" transform="matrix(1 0 -0.00414941 0.999991 0.189085 1.28745e-05)" fill="#8FBBF5"/>
<rect x="1.49378" y="1.49999" width="41.3962" height="41.0783" rx="6.5" transform="matrix(1 0 -0.00414941 0.999991 0.189085 1.28745e-05)" stroke="#2E1464" stroke-width="3"/>
<path d="M23.1863 31.2398C21.7943 31.2398 20.6037 30.9118 19.6144 30.2558C18.6412 29.5838 17.9012 28.6238 17.3943 27.3758C16.8875 26.1278 16.6378 24.6158 16.6452 22.8399C16.6511 21.3999 16.8164 20.1279 17.141 19.0239C17.4816 17.9039 17.9656 16.9599 18.5927 16.1919C19.2199 15.4239 19.9824 14.8399 20.88 14.4399C21.7937 14.0399 22.8185 13.8399 23.9545 13.8399C24.6585 13.8399 25.37 13.9519 26.0891 14.1759C26.8243 14.3839 27.5109 14.7039 28.1491 15.1359C28.4045 15.2959 28.5716 15.5039 28.6505 15.7599C28.7295 16.0159 28.7364 16.2719 28.6714 16.5279C28.6224 16.7679 28.5095 16.9839 28.3327 17.1759C28.1719 17.3519 27.9635 17.4639 27.7073 17.5119C27.4511 17.5439 27.1714 17.4719 26.8682 17.2959C26.3255 16.9759 25.8144 16.7519 25.335 16.6239C24.8555 16.4959 24.3758 16.4319 23.8958 16.4319C22.9678 16.4319 22.1829 16.6479 21.5411 17.0799C20.8993 17.5119 20.4086 18.1599 20.069 19.0239C19.7454 19.8879 19.5809 20.9679 19.5756 22.2639L19.5681 24.0639H19.2801C19.4115 23.2479 19.6784 22.5519 20.0807 21.9759C20.4992 21.3839 21.0291 20.9359 21.6703 20.6319C22.3117 20.3119 23.0243 20.1519 23.8083 20.1519C24.7843 20.1519 25.6474 20.3839 26.3974 20.8479C27.1475 21.3119 27.7368 21.9519 28.1655 22.7679C28.5941 23.5839 28.8062 24.5198 28.8018 25.5758C28.7973 26.6638 28.5532 27.6398 28.0697 28.5038C27.6021 29.3518 26.9434 30.0238 26.0933 30.5198C25.2593 30.9998 24.2903 31.2398 23.1863 31.2398ZM23.0285 28.7918C23.6045 28.7918 24.109 28.6638 24.5421 28.4078C24.9911 28.1518 25.3366 27.7918 25.5785 27.3278C25.8205 26.8478 25.9428 26.3038 25.9453 25.6958C25.9479 25.0718 25.8302 24.5278 25.5921 24.0639C25.354 23.5999 25.0115 23.2399 24.5646 22.9839C24.1337 22.7119 23.6303 22.5759 23.0543 22.5759C22.4783 22.5759 21.9737 22.7119 21.5406 22.9839C21.1075 23.2399 20.762 23.5999 20.5041 24.0639C20.2622 24.5278 20.1399 25.0718 20.1373 25.6958C20.1348 26.3038 20.2525 26.8478 20.4905 27.3278C20.7446 27.7918 21.0871 28.1518 21.5181 28.4078C21.949 28.6638 22.4525 28.7918 23.0285 28.7918Z" fill="#080234"/>
<rect x="1.49378" y="1.49999" width="41.3962" height="41.0783" rx="6.5" transform="matrix(1 0 -0.00414941 0.999991 43.7931 87.5322)" fill="#FC5130"/>
<rect x="1.49378" y="1.49999" width="41.3962" height="41.0783" rx="6.5" transform="matrix(1 0 -0.00414941 0.999991 43.7931 87.5322)" stroke="#2E1464" stroke-width="3"/>
<rect x="1.49378" y="1.49999" width="41.3962" height="41.0783" rx="6.5" transform="matrix(1 0 -0.00414941 0.999991 43.1891 44)" fill="#8FBBF5"/>
<rect x="1.49378" y="1.49999" width="41.3962" height="41.0783" rx="6.5" transform="matrix(1 0 -0.00414941 0.999991 43.1891 44)" stroke="#2E1464" stroke-width="3"/>
<rect x="1.49378" y="1.49999" width="41.3962" height="41.0783" rx="6.5" transform="matrix(1 0 -0.00414941 0.999991 43.1891 1.28745e-05)" stroke="#2E1464" stroke-width="3"/>
<rect x="1.49378" y="1.49999" width="41.3962" height="41.0783" rx="6.5" transform="matrix(1 0 -0.00414941 0.999991 0.189085 87.5322)" stroke="#2E1464" stroke-width="3"/>
<rect x="1.49378" y="1.49999" width="41.3962" height="41.0783" rx="6.5" transform="matrix(1 0 -0.00414941 0.999991 0.189085 44)" fill="#FC5130"/>
<rect x="1.49378" y="1.49999" width="41.3962" height="41.0783" rx="6.5" transform="matrix(1 0 -0.00414941 0.999991 0.189085 44)" stroke="#2E1464" stroke-width="3"/>
</svg>
