<svg width="32" height="31" viewBox="0 0 32 31" fill="none" xmlns="http://www.w3.org/2000/svg">
<rect x="0.931224" y="0.929463" width="29.2698" height="28.9375" rx="4.02768" transform="matrix(1 0 0.00189343 0.999998 -0.00175982 1.55121e-06)" fill="#8FBBF5"/>
<rect x="0.931224" y="0.929463" width="29.2698" height="28.9375" rx="4.02768" transform="matrix(1 0 0.00189343 0.999998 -0.00175982 1.55121e-06)" stroke="#2E1464" stroke-width="1.85893"/>
<path d="M13.5575 21.197C13.2997 21.197 13.0964 21.1276 12.9474 20.9888C12.8083 20.8401 12.7385 20.6418 12.7381 20.3939C12.7376 20.1362 12.8066 19.9428 12.9452 19.814C13.0936 19.6851 13.2968 19.6206 13.5545 19.6206H15.2201L15.2063 12.3188H16.1283L13.9447 13.6423C13.7566 13.7514 13.5782 13.796 13.4096 13.7762C13.2509 13.7464 13.112 13.677 12.9928 13.568C12.8835 13.449 12.8089 13.3102 12.769 13.1516C12.729 12.9929 12.7386 12.8343 12.7978 12.6757C12.8669 12.5071 12.9955 12.3683 13.1837 12.2593L15.2336 11.025C15.4317 10.906 15.6298 10.8068 15.8279 10.7275C16.026 10.6383 16.2093 10.5937 16.3779 10.5937C16.5861 10.5937 16.7597 10.6532 16.8987 10.7721C17.0377 10.8812 17.1075 11.0646 17.108 11.3224L17.1237 19.6206H18.6406C18.8983 19.6206 19.0967 19.6851 19.2358 19.814C19.3847 19.9428 19.4595 20.1362 19.46 20.3939C19.4604 20.6517 19.3865 20.85 19.238 20.9888C19.0995 21.1276 18.9013 21.197 18.6435 21.197H13.5575Z" fill="#080234"/>
</svg>
