<svg width="89" height="133" viewBox="0 0 89 133" fill="none" xmlns="http://www.w3.org/2000/svg">
<rect x="1.49378" y="1.49999" width="41.3962" height="41.0783" rx="6.5" transform="matrix(1 0 -0.00414941 0.999991 0.189085 1.28745e-05)" fill="#8FBBF5"/>
<rect x="1.49378" y="1.49999" width="41.3962" height="41.0783" rx="6.5" transform="matrix(1 0 -0.00414941 0.999991 0.189085 1.28745e-05)" stroke="#2E1464" stroke-width="3"/>
<path d="M22.7063 31.2398C21.8583 31.2398 20.9948 31.1278 20.1157 30.9038C19.2366 30.6798 18.4301 30.3358 17.696 29.8718C17.3928 29.6798 17.1857 29.4558 17.0748 29.1998C16.9799 28.9278 16.957 28.6638 17.0061 28.4078C17.0712 28.1358 17.1921 27.9118 17.3688 27.7358C17.5616 27.5438 17.7861 27.4318 18.0422 27.3998C18.3144 27.3678 18.6101 27.4398 18.9293 27.6158C19.52 27.9518 20.1189 28.2078 20.7262 28.3838C21.3334 28.5598 21.9811 28.6478 22.6691 28.6478C23.3411 28.6478 23.9176 28.5278 24.3986 28.2878C24.8796 28.0478 25.2489 27.7118 25.5067 27.2798C25.7645 26.8478 25.8946 26.3438 25.897 25.7678C25.9007 24.8718 25.6317 24.1519 25.09 23.6079C24.5483 23.0479 23.8055 22.7679 22.8615 22.7679C22.3495 22.7679 21.8531 22.8559 21.3724 23.0319C20.8917 23.1919 20.4185 23.4799 19.9528 23.8959C19.8083 24.0239 19.6237 24.1519 19.3992 24.2799C19.1747 24.3919 18.9345 24.4479 18.6785 24.4479C18.2785 24.4479 17.9749 24.3439 17.7678 24.1359C17.5606 23.9279 17.4578 23.6399 17.4594 23.2719L17.4919 15.4239C17.4937 14.9919 17.6071 14.6639 17.832 14.4399C18.073 14.1999 18.4095 14.0799 18.8415 14.0799H26.7375C27.1695 14.0799 27.497 14.1919 27.7201 14.4159C27.9593 14.6239 28.078 14.9359 28.0762 15.3519C28.0746 15.7519 27.9533 16.0639 27.7124 16.2879C27.4874 16.5119 27.159 16.6239 26.727 16.6239H20.487L20.4646 21.9999H19.6726C20.091 21.4399 20.6448 21.0079 21.334 20.7039C22.0233 20.3999 22.7759 20.2479 23.5919 20.2479C24.6639 20.2479 25.591 20.4799 26.373 20.9439C27.1712 21.3919 27.7846 22.0239 28.2132 22.8399C28.6578 23.6399 28.878 24.5758 28.8735 25.6478C28.8689 26.7518 28.6169 27.7278 28.1174 28.5758C27.6179 29.4078 26.9032 30.0638 25.9732 30.5438C25.0593 31.0078 23.9703 31.2398 22.7063 31.2398Z" fill="#080234"/>
<rect x="1.49378" y="1.49999" width="41.3962" height="41.0783" rx="6.5" transform="matrix(1 0 -0.00414941 0.999991 44.3719 88)" fill="#8FBBF5"/>
<rect x="1.49378" y="1.49999" width="41.3962" height="41.0783" rx="6.5" transform="matrix(1 0 -0.00414941 0.999991 44.3719 88)" stroke="#2E1464" stroke-width="3"/>
<rect x="1.49378" y="1.49999" width="41.3962" height="41.0783" rx="6.5" transform="matrix(1 0 -0.00414941 0.999991 44.1891 44)" stroke="#2E1464" stroke-width="3"/>
<rect x="1.49378" y="1.49999" width="41.3962" height="41.0783" rx="6.5" transform="matrix(1 0 -0.00414941 0.999991 0.189085 88)" stroke="#2E1464" stroke-width="3"/>
<rect x="1.49378" y="1.49999" width="41.3962" height="41.0783" rx="6.5" transform="matrix(1 0 -0.00414941 0.999991 0.189085 44)" fill="#FC5130"/>
<rect x="1.49378" y="1.49999" width="41.3962" height="41.0783" rx="6.5" transform="matrix(1 0 -0.00414941 0.999991 0.189085 44)" stroke="#2E1464" stroke-width="3"/>
</svg>
