<svg width="29" height="83" viewBox="0 0 29 83" fill="none" xmlns="http://www.w3.org/2000/svg">
<rect x="0.925603" y="0.929456" width="26.1617" height="25.9265" rx="4.02768" transform="matrix(1 0 -0.00415456 0.999991 0.119309 7.97759e-06)" fill="#8FBBF5"/>
<rect x="0.925603" y="0.929456" width="26.1617" height="25.9265" rx="4.02768" transform="matrix(1 0 -0.00415456 0.999991 0.119309 7.97759e-06)" stroke="#2E1464" stroke-width="1.85893"/>
<path d="M13.6266 19.4862C13.0912 19.4862 12.5363 19.4168 11.9618 19.278C11.3874 19.1392 10.8876 18.931 10.4624 18.6534C10.2647 18.5246 10.1314 18.3758 10.0627 18.2073C9.99403 18.0388 9.97486 17.8801 10.0052 17.7314C10.0455 17.5728 10.1205 17.4389 10.23 17.3299C10.3494 17.2208 10.4934 17.1564 10.662 17.1366C10.8406 17.1167 11.0337 17.1614 11.2415 17.2704C11.647 17.4885 12.038 17.6471 12.4143 17.7463C12.7907 17.8355 13.1772 17.8801 13.5737 17.8801C14.01 17.8801 14.3771 17.8206 14.675 17.7017C14.9729 17.5827 15.1967 17.4042 15.3464 17.1663C15.506 16.9284 15.5865 16.6409 15.5879 16.3038C15.59 15.8081 15.423 15.4412 15.0869 15.2033C14.7607 14.9554 14.2804 14.8315 13.6459 14.8315H12.6941C12.4165 14.8315 12.2037 14.7621 12.0555 14.6233C11.9173 14.4845 11.8487 14.2912 11.8497 14.0433C11.8508 13.7955 11.921 13.6022 12.0603 13.4634C12.2096 13.3246 12.4231 13.2552 12.7007 13.2552H13.474C13.8507 13.2552 14.1732 13.1957 14.4414 13.0767C14.7096 12.9478 14.9185 12.7694 15.0682 12.5413C15.2179 12.3133 15.2934 12.0357 15.2947 11.7085C15.2966 11.2525 15.1444 10.9055 14.838 10.6675C14.5416 10.4296 14.1059 10.3106 13.5308 10.3106C13.164 10.3106 12.8168 10.3553 12.4893 10.4445C12.1717 10.5238 11.8191 10.6775 11.4315 10.9055C11.2526 11.0145 11.0789 11.0592 10.9104 11.0393C10.7519 11.0195 10.6183 10.9551 10.5097 10.846C10.4011 10.7369 10.3273 10.6081 10.2882 10.4594C10.2492 10.3007 10.2598 10.1421 10.32 9.98347C10.3802 9.81493 10.5047 9.67117 10.6935 9.5522C11.121 9.2746 11.5928 9.06641 12.1089 8.92761C12.6251 8.77889 13.1558 8.70454 13.7011 8.70454C14.4248 8.70454 15.044 8.81855 15.5586 9.04658C16.0732 9.26469 16.4635 9.58194 16.7295 9.99834C17.0054 10.4048 17.1421 10.9005 17.1397 11.4855C17.138 11.9019 17.0571 12.2836 16.897 12.6306C16.737 12.9676 16.5127 13.2552 16.2242 13.4931C15.9357 13.731 15.588 13.8996 15.1811 13.9987L15.1819 13.8203C15.8952 13.9392 16.4492 14.2367 16.8437 14.7125C17.2384 15.1785 17.4342 15.7634 17.4313 16.4674C17.4288 17.082 17.2729 17.6174 16.9636 18.0735C16.6544 18.5295 16.2167 18.8815 15.6506 19.1293C15.0845 19.3673 14.4098 19.4862 13.6266 19.4862Z" fill="#080234"/>
<rect x="0.925603" y="0.929456" width="26.1617" height="25.9265" rx="4.02768" transform="matrix(1 0 -0.00415456 0.999991 0.119294 27.4414)" stroke="#2E1464" stroke-width="1.85893"/>
<rect x="0.925603" y="0.929456" width="26.1617" height="25.9265" rx="4.02768" transform="matrix(1 0 -0.00415456 0.999991 0.119294 55)" fill="#FC5130"/>
<rect x="0.925603" y="0.929456" width="26.1617" height="25.9265" rx="4.02768" transform="matrix(1 0 -0.00415456 0.999991 0.119294 55)" stroke="#2E1464" stroke-width="1.85893"/>
</svg>
