<svg width="28" height="109" viewBox="0 0 28 109" fill="none" xmlns="http://www.w3.org/2000/svg">
<rect x="0.925602" y="0.929456" width="25.8485" height="25.6118" rx="4.02768" transform="matrix(1 0 -0.00415519 0.999991 0.118013 7.97759e-06)" fill="#8FBBF5"/>
<rect x="0.925602" y="0.929456" width="25.8485" height="25.6118" rx="4.02768" transform="matrix(1 0 -0.00415519 0.999991 0.118013 7.97759e-06)" stroke="#2E1464" stroke-width="1.85893"/>
<path d="M15.514 19.4562C15.2166 19.4562 14.9839 19.3769 14.816 19.2183C14.6482 19.0498 14.5649 18.8118 14.5662 18.5045L14.571 17.3445H10.8977C10.5904 17.3445 10.3428 17.2801 10.155 17.1512C9.97706 17.0223 9.88867 16.8191 9.88983 16.5415C9.89049 16.3828 9.93086 16.2093 10.011 16.021C10.101 15.8326 10.2557 15.5847 10.4751 15.2774L14.5744 9.3735C14.714 9.1653 14.8684 9.00668 15.0374 8.89762C15.2064 8.78856 15.3999 8.73404 15.618 8.73404C15.8758 8.73404 16.0886 8.81335 16.2565 8.97198C16.4244 9.12069 16.5077 9.35863 16.5064 9.6858L16.4811 15.7682H17.2098C17.4973 15.7682 17.7102 15.8376 17.8484 15.9764C17.9966 16.1052 18.0701 16.2986 18.0691 16.5563C18.068 16.8141 17.9928 17.0124 17.8435 17.1512C17.7042 17.2801 17.4907 17.3445 17.2032 17.3445H16.4745L16.4697 18.5045C16.4684 18.8118 16.3832 19.0498 16.2139 19.2183C16.0447 19.3769 15.8114 19.4562 15.514 19.4562ZM14.5775 15.7682L14.5968 11.1283H15.0281L11.4971 16.2738L11.4992 15.7682H14.5775Z" fill="#080234"/>
<rect x="0.925602" y="0.929456" width="25.8485" height="25.6118" rx="4.02768" transform="matrix(1 0 -0.00415519 0.999991 0.118013 54.2202)" stroke="#2E1464" stroke-width="1.85893"/>
<rect x="0.925602" y="0.929456" width="25.8485" height="25.6118" rx="4.02768" transform="matrix(1 0 -0.00415519 0.999991 0.118013 81.5249)" fill="#8FBBF5"/>
<rect x="0.925602" y="0.929456" width="25.8485" height="25.6118" rx="4.02768" transform="matrix(1 0 -0.00415519 0.999991 0.118013 81.5249)" stroke="#2E1464" stroke-width="1.85893"/>
<rect x="0.925602" y="0.929456" width="25.8485" height="25.6118" rx="4.02768" transform="matrix(1 0 -0.00415519 0.999991 0.118013 27.1304)" fill="#FC5130"/>
<rect x="0.925602" y="0.929456" width="25.8485" height="25.6118" rx="4.02768" transform="matrix(1 0 -0.00415519 0.999991 0.118013 27.1304)" stroke="#2E1464" stroke-width="1.85893"/>
</svg>
