<svg width="90" height="90" viewBox="0 0 90 90" fill="none" xmlns="http://www.w3.org/2000/svg">
<rect x="1.49381" y="1.49999" width="41.905" height="41.8411" rx="6.5" transform="matrix(1 0 -0.00412556 0.999992 22.1912 1.26957e-05)" fill="#8FBBF5"/>
<rect x="1.49381" y="1.49999" width="41.905" height="41.8411" rx="6.5" transform="matrix(1 0 -0.00412556 0.999992 22.1912 1.26957e-05)" stroke="#2E1464" stroke-width="3"/>
<path d="M44.2293 31.2398C43.3653 31.2398 42.4698 31.1278 41.5427 30.9038C40.6156 30.6798 39.809 30.3438 39.1229 29.8958C38.8037 29.6878 38.5887 29.4478 38.4778 29.1758C38.367 28.9038 38.336 28.6478 38.385 28.4078C38.4501 28.1518 38.571 27.9358 38.7477 27.7598C38.9404 27.5838 39.1728 27.4798 39.445 27.4478C39.7331 27.4158 40.0448 27.4878 40.3801 27.6638C41.0346 28.0158 41.6656 28.2718 42.2729 28.4318C42.8803 28.5758 43.504 28.6478 44.144 28.6478C44.848 28.6478 45.4404 28.5518 45.9212 28.3598C46.402 28.1678 46.7632 27.8798 47.0048 27.4958C47.2624 27.1118 47.3923 26.6478 47.3945 26.1038C47.3978 25.3038 47.1283 24.7118 46.5858 24.3279C46.0595 23.9279 45.2843 23.7279 44.2603 23.7279H42.7243C42.2763 23.7279 41.9328 23.6159 41.6937 23.3919C41.4706 23.1679 41.3599 22.8559 41.3616 22.4559C41.3632 22.0559 41.4765 21.7439 41.7014 21.5199C41.9424 21.2959 42.2868 21.1839 42.7348 21.1839H43.9828C44.5908 21.1839 45.1112 21.0879 45.544 20.8959C45.9769 20.6879 46.3141 20.3999 46.5556 20.0319C46.7971 19.6639 46.9189 19.2159 46.9211 18.6879C46.9241 17.9519 46.6785 17.3919 46.184 17.0079C45.7056 16.6239 45.0024 16.4319 44.0744 16.4319C43.4824 16.4319 42.9221 16.5039 42.3935 16.6479C41.881 16.7759 41.312 17.0239 40.6865 17.3919C40.3977 17.5679 40.1174 17.6399 39.8456 17.6079C39.5897 17.5759 39.3741 17.4719 39.1989 17.2959C39.0236 17.1199 38.9044 16.9119 38.8414 16.6719C38.7785 16.4159 38.7955 16.1599 38.8926 15.9039C38.9897 15.6319 39.1907 15.3999 39.4955 15.2079C40.1853 14.7599 40.9467 14.4239 41.7796 14.1999C42.6126 13.9599 43.4691 13.8399 44.3491 13.8399C45.5171 13.8399 46.5164 14.0239 47.3468 14.3919C48.1774 14.7439 48.8073 15.2559 49.2365 15.9279C49.6818 16.5839 49.9025 17.3839 49.8986 18.3279C49.8958 18.9999 49.7653 19.6159 49.507 20.1759C49.2487 20.7199 48.8868 21.1839 48.4212 21.5679C47.9556 21.9519 47.3945 22.2239 46.7379 22.3839L46.7391 22.0959C47.8903 22.2879 48.7843 22.7679 49.4211 23.5359C50.058 24.2879 50.3741 25.2318 50.3694 26.3678C50.3653 27.3598 50.1138 28.2238 49.6147 28.9598C49.1157 29.6958 48.4094 30.2638 47.4957 30.6638C46.5821 31.0478 45.4933 31.2398 44.2293 31.2398Z" fill="#080234"/>
<rect x="1.49381" y="1.49999" width="41.905" height="41.8411" rx="6.5" transform="matrix(1 0 -0.00412556 0.999992 44.1214 44.2859)" stroke="#2E1464" stroke-width="3"/>
<rect x="1.49381" y="1.49999" width="41.905" height="41.8411" rx="6.5" transform="matrix(1 0 -0.00412556 0.999992 0.191247 44.2859)" fill="#FC5130"/>
<rect x="1.49381" y="1.49999" width="41.905" height="41.8411" rx="6.5" transform="matrix(1 0 -0.00412556 0.999992 0.191247 44.2859)" stroke="#2E1464" stroke-width="3"/>
</svg>
