<svg width="89" height="132" viewBox="0 0 89 132" fill="none" xmlns="http://www.w3.org/2000/svg">
<rect x="1.49381" y="1.49999" width="41.3962" height="41.3331" rx="6.5" transform="matrix(1 0 -0.00412556 0.999992 0.18905 1.26957e-05)" fill="#8FBBF5"/>
<rect x="1.49381" y="1.49999" width="41.3962" height="41.3331" rx="6.5" transform="matrix(1 0 -0.00412556 0.999992 0.18905 1.26957e-05)" stroke="#2E1464" stroke-width="3"/>
<path d="M25.2753 31.1918C24.7953 31.1918 24.4199 31.0638 24.1489 30.8078C23.878 30.5358 23.7436 30.1518 23.7457 29.6558L23.7534 27.7838H17.8254C17.3294 27.7838 16.9298 27.6798 16.6267 27.4718C16.3395 27.2638 16.1969 26.9358 16.1987 26.4878C16.1998 26.2318 16.2649 25.9518 16.3942 25.6478C16.5395 25.3438 16.7891 24.9438 17.1432 24.4479L23.7585 14.9199C23.9838 14.5839 24.2329 14.3279 24.5056 14.1519C24.7784 13.9759 25.0907 13.8879 25.4427 13.8879C25.8587 13.8879 26.2022 14.0159 26.4731 14.2719C26.7441 14.5119 26.8786 14.8959 26.8764 15.4239L26.8359 25.2398H28.0119C28.4759 25.2398 28.8194 25.3518 29.0425 25.5758C29.2816 25.7838 29.4004 26.0958 29.3986 26.5118C29.3969 26.9278 29.2756 27.2478 29.0347 27.4718C28.8098 27.6798 28.4654 27.7838 28.0014 27.7838H26.8254L26.8177 29.6558C26.8156 30.1518 26.678 30.5358 26.4049 30.8078C26.1319 31.0638 25.7553 31.1918 25.2753 31.1918ZM23.7639 25.2398L23.7948 17.7519H24.4908L18.7925 26.0558L18.7959 25.2398H23.7639Z" fill="#080234"/>
<rect x="1.49381" y="1.49999" width="41.3962" height="41.3331" rx="6.5" transform="matrix(1 0 -0.00412556 0.999992 0.18905 87.5029)" stroke="#2E1464" stroke-width="3"/>
<rect x="1.49381" y="1.49999" width="41.3962" height="41.3331" rx="6.5" transform="matrix(1 0 -0.00412556 0.999992 44.3719 87.5029)" fill="#8FBBF5"/>
<rect x="1.49381" y="1.49999" width="41.3962" height="41.3331" rx="6.5" transform="matrix(1 0 -0.00412556 0.999992 44.3719 87.5029)" stroke="#2E1464" stroke-width="3"/>
<rect x="1.49381" y="1.49999" width="41.3962" height="41.3331" rx="6.5" transform="matrix(1 0 -0.00412556 0.999992 0.18905 43.7839)" fill="#FC5130"/>
<rect x="1.49381" y="1.49999" width="41.3962" height="41.3331" rx="6.5" transform="matrix(1 0 -0.00412556 0.999992 0.18905 43.7839)" stroke="#2E1464" stroke-width="3"/>
</svg>
