<svg width="621" height="176" fill="none" xmlns="http://www.w3.org/2000/svg"><path d="M4 77c15.177-14.593 33.079-26.804 53-36.858C173.592-18.7 359.336-3.669 472.5 40.067 537.873 65.334 592.222 108.275 620 175" stroke="#AEA1C9" stroke-width="1.5" stroke-linecap="round" stroke-dasharray="20 20"/><path d="M0 76.858a4 4 0 1 0 8 0 4 4 0 0 0-8 0ZM57.338 40.67a.75.75 0 0 0-.676-1.34l.676 1.34ZM10.454 71.935a.75.75 0 1 0-.992-1.125l.992 1.125Zm11.634-11.364a.75.75 0 1 0 .897 1.202l-.897-1.202Zm14.186-7.957a.75.75 0 0 0-.805-1.265l.805 1.265Zm13.194-9.51a.75.75 0 0 0 .718 1.316l-.718-1.317ZM4.52 77.397c1.934-1.86 3.913-3.68 5.934-5.463l-.992-1.125a188.462 188.462 0 0 0-5.982 5.507l1.04 1.081Zm18.465-15.625a216.547 216.547 0 0 1 13.29-9.159l-.806-1.265a218.058 218.058 0 0 0-13.381 9.222l.897 1.202ZM50.186 44.42a255.871 255.871 0 0 1 7.152-3.75l-.676-1.34a257.958 257.958 0 0 0-7.194 3.773l.718 1.317Z" fill="#AEA1C9"/></svg>