<svg width="266" height="62" fill="none" xmlns="http://www.w3.org/2000/svg"><path d="M265.737 21.862a.75.75 0 0 1-.599.875l-6.634 1.244a.751.751 0 0 1-.277-1.474l5.898-1.106-1.106-5.897a.75.75 0 0 1 1.474-.277l1.244 6.635Zm-9.762-4.804a.75.75 0 0 1 .778-1.282l-.778 1.282ZM238.539 6.375a.75.75 0 1 1-.578 1.384l.578-1.384ZM218.706 2.03a.75.75 0 0 1 .249-1.479l-.249 1.48ZM198.396.202a.75.75 0 1 1 .208 1.486l-.208-1.486Zm-19.075 7.142a.75.75 0 0 1-.605-1.372l.605 1.372Zm-18.549 8.496a.75.75 0 0 1 .809 1.263l-.809-1.263ZM144.76 28.584a.75.75 0 0 1-.862-1.228l.862 1.228Zm-17.712 10.179a.75.75 0 0 1 .804 1.266l-.804-1.266Zm-17.037 11.29a.75.75 0 1 1-.649-1.353l.649 1.352Zm-19.534 5.886a.75.75 0 1 1 .412 1.442l-.412-1.442Zm-19.76 5.19a.75.75 0 1 1-.133-1.494l.134 1.494Zm-20.37-1.48a.75.75 0 0 1-.125 1.495l.125-1.495Zm-20.284-1.683a.75.75 0 1 1 .333-1.463l-.333 1.463Zm-19.152-7.08a.75.75 0 1 1-.49 1.417l.49-1.417Zm253.665-28.267a189.067 189.067 0 0 0-8.601-5.56l.778-1.283a190.397 190.397 0 0 1 8.671 5.605l-.848 1.238Zm-26.615-14.86c-6.842-2.862-13.23-4.715-19.255-5.73l.249-1.479c6.15 1.035 12.649 2.924 19.584 5.825l-.578 1.384Zm-39.357-6.071c-6.755.949-13.121 2.943-19.283 5.656l-.605-1.372c6.264-2.758 12.763-4.798 19.68-5.77l.208 1.486Zm-37.023 15.415c-5.581 3.575-11.132 7.491-16.821 11.481l-.862-1.228c5.682-3.984 11.261-7.92 16.874-11.516l.809 1.263Zm-33.729 22.926c-5.664 3.594-11.57 7.012-17.841 10.023l-.649-1.352c6.203-2.979 12.057-6.365 17.686-9.937l.804 1.266ZM90.889 57.381a108.484 108.484 0 0 1-20.171 3.748l-.134-1.494a106.989 106.989 0 0 0 19.893-3.696l.412 1.442Zm-40.667 3.763c-6.368-.533-13.074-1.566-20.159-3.178l.333-1.463c7.02 1.598 13.656 2.62 19.95 3.146l-.124 1.495Zm-39.8-8.84a228.513 228.513 0 0 1-9.699-3.607l.554-1.394a227.202 227.202 0 0 0 9.634 3.583l-.49 1.417Z" fill="#AEA1C9"/></svg>