<svg width="19" height="20" fill="none" xmlns="http://www.w3.org/2000/svg"><path d="M8.573 2.805c-.559.442-1.062.953-1.696 1.285-.893.475-3.756-.048-3.3 1.894.121.525.698.839.89 1.34.26.658-.207 1.378-.795 1.777-.589.398-1.288.62-1.845 1.054-.785.62-1.182 1.674-.993 2.647.19.973.943 1.822 1.904 2.143 1.562.513 3.432-.323 4.843.518.96.58 1.374 1.79 2.308 2.405.719.476 1.706.512 2.46.107a2.333 2.333 0 0 0 1.205-2.095c-.014-.475-.187-.933-.201-1.41-.028-.806.435-1.605 1.15-2.008.855-.482 2.073-.44 2.623-1.241.587-.843.01-2.006-.75-2.722-.761-.707-1.723-1.279-2.14-2.218-.497-1.129-.06-2.541-.737-3.589-.498-.772-1.51-1.13-2.437-1.03-.927.102-1.772.576-2.49 1.143Z" fill="#FC5130"/></svg>