<svg width="50" height="50" viewBox="0 0 50 50" fill="none" xmlns="http://www.w3.org/2000/svg">
<g clip-path="url(#clip0_4933_13991)">
<path d="M48.8994 23.8928C48.9038 23.8928 48.9071 23.8928 48.9114 23.8928C49.216 23.8928 49.5063 23.7651 49.7126 23.5413C49.9222 23.3143 50.0259 23.0097 49.9986 22.7019C48.9027 10.6481 39.3594 1.1016 27.3046 0.00351758C26.9989 -0.0204961 26.6911 0.0788333 26.4641 0.289499C26.2371 0.499073 26.1104 0.794878 26.1137 1.10378C26.3036 17.1231 28.4169 23.669 48.8994 23.8928ZM48.8994 26.1064C28.4169 26.3302 26.3047 32.8761 26.1148 48.8954C26.1115 49.2043 26.2382 49.5001 26.4652 49.7097C26.6682 49.8963 26.9335 50 27.2063 50C27.2391 50 27.2729 49.9989 27.3057 49.9956C39.3605 48.8976 48.9038 39.3521 49.9986 27.2972C50.0259 26.9894 49.9233 26.6849 49.7126 26.4579C49.502 26.2308 49.2083 26.1184 48.8994 26.1064ZM22.6252 0.00897535C10.6085 1.13871 1.09582 10.6831 0.00538405 22.7041C-0.0219042 23.0119 0.0806998 23.3164 0.291365 23.5435C0.497665 23.7672 0.789103 23.8939 1.09255 23.8939C1.09692 23.8939 1.10128 23.8939 1.10565 23.8939C21.5206 23.6592 23.6283 17.1165 23.8204 1.10815C23.8237 0.799244 23.696 0.502347 23.4689 0.292773C23.2397 0.0831995 22.933 -0.0194045 22.6252 0.00897535ZM1.10456 26.1053C0.76509 26.0671 0.498756 26.2286 0.290274 26.4557C0.0806999 26.6827 -0.0229957 26.9873 0.0042926 27.2951C1.09473 39.3161 10.6085 48.8604 22.6252 49.9902C22.659 49.9935 22.694 49.9945 22.7278 49.9945C23.0007 49.9945 23.2648 49.8919 23.4678 49.7053C23.6949 49.4957 23.8226 49.1988 23.8193 48.8899C23.6272 32.8826 21.5206 26.34 1.10456 26.1053Z" fill="#191919"/>
</g>
<defs>
<clipPath id="clip0_4933_13991">
<rect width="50" height="50" fill="white"/>
</clipPath>
</defs>
</svg>
