<svg width="48" height="50" viewBox="0 0 48 50" fill="none" xmlns="http://www.w3.org/2000/svg">
<g clip-path="url(#clip0_4933_13988)">
<path d="M24 0C17.6362 0 11.5275 2.63555 7.03125 7.32227C2.53036 12.0108 0.00124676 18.3695 0 25C0 31.6277 2.53125 37.991 7.03125 42.6777C11.5275 47.3645 17.6362 50 24 50C30.3638 50 36.4725 47.3645 40.9688 42.6777C45.4688 37.991 48 31.6277 48 25C48 18.3723 45.4688 12.009 40.9688 7.32227C36.4725 2.63555 30.3638 0 24 0Z" fill="url(#paint0_linear_4933_13988)"/>
<path d="M10.8617 24.736C17.8592 21.561 22.5242 19.4676 24.8567 18.4563C31.5242 15.5684 32.908 15.0668 33.8117 15.0498C34.0105 15.0465 34.453 15.0977 34.7417 15.3408C34.9817 15.5459 35.0492 15.8233 35.083 16.018C35.113 16.2125 35.1542 16.6559 35.1205 17.002C34.7605 20.9551 33.1967 30.5481 32.4017 34.9758C32.068 36.8492 31.4042 37.4774 30.763 37.5387C29.368 37.6723 28.3105 36.5793 26.9605 35.6578C24.8492 34.2153 23.6567 33.3176 21.6055 31.9102C19.2355 30.2836 20.773 29.3895 22.123 27.9285C22.4755 27.5461 28.618 21.7278 28.7342 21.2C28.7492 21.134 28.7642 20.8879 28.6217 20.7582C28.483 20.6282 28.2767 20.6727 28.1267 20.7078C27.913 20.7578 24.5417 23.0813 18.0017 27.6778C17.0455 28.3629 16.1792 28.6969 15.3992 28.6793C14.5442 28.6602 12.8942 28.1746 11.668 27.7598C10.168 27.2508 8.97173 26.9817 9.07673 26.1172C9.12923 25.6672 9.72548 25.2067 10.8617 24.736Z" fill="white"/>
</g>
<defs>
<linearGradient id="paint0_linear_4933_13988" x1="2400" y1="0" x2="2400" y2="5000" gradientUnits="userSpaceOnUse">
<stop stop-color="#2AABEE"/>
<stop offset="1" stop-color="#229ED9"/>
</linearGradient>
<clipPath id="clip0_4933_13988">
<rect width="48" height="50" fill="white"/>
</clipPath>
</defs>
</svg>
