<svg width="20" height="25" viewBox="0 0 20 25" fill="none" xmlns="http://www.w3.org/2000/svg">
<path fill-rule="evenodd" clip-rule="evenodd" d="M10.0002 25C9.74022 25 9.48674 24.9188 9.27518 24.7677C8.89518 24.4989 -0.0361402 18.0501 0.000110048 9.99383C0.000110048 4.48629 4.4864 0 10.0002 0C15.514 0 20.0003 4.48629 20.0003 10.0001C20.0365 18.0501 11.1052 24.4989 10.7252 24.7677C10.5136 24.9188 10.2602 25 10.0002 25ZM17.5002 10.0063C17.5002 5.8638 14.1365 2.50002 10.0002 2.50002C5.86391 2.50002 2.50013 5.8638 2.50013 10.0001C2.47388 15.5514 7.98642 20.5339 10.0002 22.1689C12.0152 20.5352 17.5265 15.5539 17.5002 10.0063ZM15.0001 10.0001C15.0001 12.7576 12.7576 15.0001 10.0001 15.0001C7.24256 15.0001 5.00004 12.7576 5.00004 10.0001C5.00004 7.24256 7.24256 5.00004 10.0001 5.00004C12.7576 5.00004 15.0001 7.24256 15.0001 10.0001ZM12.5001 10.0001C12.5001 8.62132 11.3788 7.50006 10.0001 7.50006C8.62132 7.50006 7.50006 8.62132 7.50006 10.0001C7.50006 11.3788 8.62132 12.5001 10.0001 12.5001C11.3788 12.5001 12.5001 11.3788 12.5001 10.0001Z" fill="#FC5130"/>
</svg>
