<svg width="60" height="70" viewBox="0 0 60 70" fill="none" xmlns="http://www.w3.org/2000/svg">
<path d="M34.0829 69.8507C33.0863 69.8507 32.1173 69.3972 31.4731 68.5732C24.8164 59.9954 14.4542 53.1154 2.29698 49.2054C0.557091 48.6468 -0.400946 46.7775 0.160663 45.0354C0.716766 43.2877 2.57778 42.331 4.31216 42.884C14.4982 46.1581 23.583 51.3733 30.6307 57.9104C31.2584 37.4862 38.8621 19.2522 54.1797 1.16743C55.3635 -0.226259 57.4447 -0.397705 58.8378 0.791353C60.2253 1.98041 60.3959 4.07094 59.2122 5.47016C42.6777 24.9984 35.9439 43.7689 37.3755 66.3278C37.4691 67.7823 36.6047 69.1263 35.2502 69.6406C34.8703 69.7789 34.4738 69.8507 34.0829 69.8507Z" fill="#00BA54"/>
</svg>
