<svg width="21" height="25" viewBox="0 0 21 25" fill="none" xmlns="http://www.w3.org/2000/svg">
<path d="M15.1469 12.3438L12.5625 5.82292L10.3833 9.63542L8.20417 5.82292L5.61979 12.3458H4.87292V13.326H8.76458V12.3458H8.18854L8.74896 10.726L10.3833 13.4031L12.0177 10.726L12.5781 12.3458H12.0021V13.326H15.9094V12.3458L15.1469 12.3438ZM20.7042 10.3521C20.7048 8.99244 20.4376 7.64599 19.9176 6.3897C19.3976 5.13342 18.6351 3.99195 17.6736 3.03053C16.7122 2.06911 15.5707 1.30661 14.3145 0.786612C13.0582 0.266614 11.7117 -0.00068327 10.3521 1.31165e-06C4.63958 1.31165e-06 0 4.63854 0 10.3521C0 13.2167 1.16771 15.8 3.03542 17.6677C3.15237 17.7857 3.30178 17.8662 3.46463 17.8991C3.62748 17.9319 3.79642 17.9156 3.94997 17.8522C4.10351 17.7887 4.23472 17.6811 4.32692 17.5429C4.41911 17.4047 4.46812 17.2422 4.46771 17.076C4.4675 16.8491 4.37808 16.6314 4.21875 16.4698C2.60052 14.8455 1.69376 12.6449 1.69792 10.3521C1.69792 5.57292 5.57292 1.68125 10.3521 1.68125C15.1312 1.68125 19.0229 5.57292 19.0229 10.3521C19.0248 11.4912 18.8017 12.6194 18.3662 13.672C17.9307 14.7245 17.2916 15.6806 16.4854 16.4854L9.76049 23.2094C9.43306 23.5368 9.4313 24.0671 9.75656 24.3966C10.0848 24.7292 10.6211 24.731 10.9516 24.4005L17.6844 17.6677C18.6447 16.7072 19.4058 15.5665 19.924 14.3111C20.4422 13.0557 20.7074 11.7103 20.7042 10.3521Z" fill="#FC5130"/>
</svg>
