<svg xmlns="http://www.w3.org/2000/svg" width="72" height="62" fill="none"><path fill="#AEA1C9" stroke="#080234" stroke-width="3" d="M32.968 8.25c1.347-2.333 4.715-2.333 6.062 0l26.847 46.5c1.347 2.333-.337 5.25-3.031 5.25H9.152c-2.694 0-4.378-2.917-3.03-5.25z"/><path fill="#080234" d="M35.27 47.24q-1.297 0-2.69-.336t-2.428-1.008q-.482-.312-.651-.72a1.3 1.3 0 0 1-.1-.768q.096-.384.358-.648.287-.264.694-.312.432-.048.937.216.987.528 1.9.768a8 8 0 0 0 1.873.216q1.056 0 1.774-.288.72-.288 1.077-.864.381-.576.378-1.392-.005-1.2-.823-1.776-.795-.6-2.33-.6h-1.537q-.672 0-1.033-.336-.337-.336-.34-.936t.332-.936q.358-.336 1.03-.336h1.249q.912 0 1.558-.288a2.4 2.4 0 0 0 1.005-.864q.357-.552.354-1.344-.005-1.104-.75-1.68-.723-.576-2.115-.576a6.4 6.4 0 0 0-1.68.216q-.766.192-1.7.744-.43.264-.84.216a1.1 1.1 0 0 1-.649-.312 1.4 1.4 0 0 1-.362-.624 1.27 1.27 0 0 1 .045-.768q.142-.408.597-.696a7.9 7.9 0 0 1 2.276-1.008 9.2 9.2 0 0 1 2.566-.36q1.752 0 3.002.552 1.25.528 1.903 1.536.675.984.682 2.4a4.4 4.4 0 0 1-.377 1.848 4 4 0 0 1-1.074 1.392q-.693.576-1.676.816l-.002-.288q1.73.288 2.694 1.44.965 1.128.972 2.832.006 1.488-.733 2.592-.74 1.104-2.105 1.704-1.365.576-3.262.576"/></svg>