<svg xmlns="http://www.w3.org/2000/svg" width="64" height="61" fill="none"><path fill="#FC5130" d="M32.002 49.98c.57 0 1.144.137 1.663.409l15.373 8.054c.395.204.844.172 1.201-.087.36-.261.53-.676.454-1.113l-2.936-17.055a3.56 3.56 0 0 1 1.027-3.153l12.437-12.08c.319-.309.424-.743.29-1.166a1.12 1.12 0 0 0-.923-.773L43.4 20.526a3.57 3.57 0 0 1-2.69-1.948l-7.686-15.52a1.12 1.12 0 0 0-1.022-.633c-.443 0-.827.237-1.022.633l-7.685 15.518a3.57 3.57 0 0 1-2.691 1.948l-17.188 2.49c-.44.064-.784.352-.922.773-.138.42-.03.856.29 1.166l12.436 12.08a3.55 3.55 0 0 1 1.028 3.152L13.31 57.24c-.076.436.095.851.454 1.113.36.26.809.29 1.2.086l15.374-8.054a3.6 3.6 0 0 1 1.663-.407"/><path fill="#FC5130" fill-rule="evenodd" d="M49.574 61a3.6 3.6 0 0 1-1.666-.413l-15.373-8.053a1.14 1.14 0 0 0-1.063 0L16.1 60.587a3.56 3.56 0 0 1-3.764-.272 3.53 3.53 0 0 1-1.423-3.484l2.937-17.056a1.13 1.13 0 0 0-.327-1.005L1.082 26.691a3.54 3.54 0 0 1-.905-3.65 3.55 3.55 0 0 1 2.885-2.426l17.188-2.49a1.14 1.14 0 0 0 .86-.622l7.685-15.517A3.56 3.56 0 0 1 31.999 0c1.369 0 2.6.76 3.205 1.986l7.685 15.517c.168.337.487.569.86.622l17.188 2.49a3.55 3.55 0 0 1 2.885 2.425 3.53 3.53 0 0 1-.903 3.651l-12.437 12.08a1.14 1.14 0 0 0-.327 1.007l2.937 17.056a3.53 3.53 0 0 1-1.422 3.484 3.56 3.56 0 0 1-2.096.681M33.665 50.388a3.59 3.59 0 0 0-3.326-.003L14.966 58.44a1.12 1.12 0 0 1-1.2-.086 1.12 1.12 0 0 1-.455-1.113l2.937-17.056a3.55 3.55 0 0 0-1.028-3.153L2.783 24.953a1.11 1.11 0 0 1-.289-1.166c.138-.42.481-.71.922-.774l17.188-2.49a3.57 3.57 0 0 0 2.69-1.947L30.98 3.058a1.12 1.12 0 0 1 1.022-.633c.444 0 .825.237 1.022.633l7.685 15.52a3.57 3.57 0 0 0 2.691 1.948l17.188 2.49c.44.065.784.353.922.773.135.423.03.857-.29 1.167l-12.436 12.08a3.56 3.56 0 0 0-1.027 3.152l2.936 17.055c.076.437-.094.852-.454 1.113a1.13 1.13 0 0 1-1.2.087z" clip-rule="evenodd"/><path fill="#080234" fill-rule="evenodd" d="M49.574 61a3.6 3.6 0 0 1-1.666-.413l-15.373-8.053a1.14 1.14 0 0 0-1.063 0L16.1 60.587a3.56 3.56 0 0 1-3.764-.272 3.53 3.53 0 0 1-1.423-3.484l2.937-17.056a1.13 1.13 0 0 0-.327-1.005L1.082 26.691a3.54 3.54 0 0 1-.905-3.65 3.55 3.55 0 0 1 2.885-2.426l17.188-2.49a1.14 1.14 0 0 0 .86-.622l7.685-15.517A3.56 3.56 0 0 1 31.999 0c1.369 0 2.6.76 3.205 1.986l7.685 15.517c.168.337.487.569.86.622l17.188 2.49a3.55 3.55 0 0 1 2.885 2.425 3.53 3.53 0 0 1-.903 3.651l-12.437 12.08a1.14 1.14 0 0 0-.327 1.007l2.937 17.056a3.53 3.53 0 0 1-1.422 3.484 3.56 3.56 0 0 1-2.096.681M33.665 50.388a3.59 3.59 0 0 0-3.326-.003L14.966 58.44a1.12 1.12 0 0 1-1.2-.086 1.12 1.12 0 0 1-.455-1.113l2.937-17.056a3.55 3.55 0 0 0-1.028-3.153L2.783 24.953a1.11 1.11 0 0 1-.289-1.166c.138-.42.481-.71.922-.774l17.188-2.49a3.57 3.57 0 0 0 2.69-1.947L30.98 3.058a1.12 1.12 0 0 1 1.022-.633c.444 0 .825.237 1.022.633l7.685 15.52a3.57 3.57 0 0 0 2.691 1.948l17.188 2.49c.44.065.784.353.922.773.135.423.03.857-.29 1.167l-12.436 12.08a3.56 3.56 0 0 0-1.027 3.152l2.936 17.055c.076.437-.094.852-.454 1.113a1.13 1.13 0 0 1-1.2.087z" clip-rule="evenodd"/><path fill="#080234" d="M31.75 42.24q-1.273 0-2.594-.336a8.4 8.4 0 0 1-2.428-1.032q-.457-.288-.627-.672a1.5 1.5 0 0 1-.075-.792q.093-.408.357-.672.286-.288.67-.336.408-.048.89.216a8.4 8.4 0 0 0 1.802.768 7 7 0 0 0 1.945.264q1.008 0 1.727-.36t1.1-1.008.378-1.512q-.007-1.344-.825-2.16-.82-.84-2.236-.84a4.3 4.3 0 0 0-1.487.264q-.72.24-1.412.864a3.3 3.3 0 0 1-.55.384 1.6 1.6 0 0 1-.72.168q-.6 0-.913-.312t-.316-.864l-.032-7.848q-.003-.648.332-.984.358-.36 1.006-.36h7.896q.648 0 .986.336.36.312.363.936.003.6-.356.936-.334.336-.982.336h-6.24L29.43 33h-.792q.621-.84 1.65-1.296a5.5 5.5 0 0 1 2.255-.456q1.607 0 2.787.696a4.6 4.6 0 0 1 1.855 1.896q.678 1.2.684 2.808.007 1.656-.732 2.928-.738 1.248-2.128 1.968-1.365.696-3.26.696"/></svg>