<svg xmlns="http://www.w3.org/2000/svg" width="58" height="56" fill="none"><path fill="#8FBBF5" stroke="#000" stroke-width="3" d="M41.417 52.196c-11.763 5.88-24.72-.51-32.66-8.099-6.923-6.616-8.294-14.665-6.6-21.016C3.88 16.62 8.629 12.214 13.784 12.214c3.159 0 5.245-.471 6.789-1.41 1.383-.84 2.193-1.994 2.878-2.968l.21-.3c.746-1.047 1.544-2.072 3.08-3.046 1.566-.992 3.99-1.985 8.043-2.747C42.244.342 49.047 5.224 53.056 11.94c1.983 3.323 3.19 6.964 3.408 10.24.22 3.288-.557 6.042-2.314 7.858-2.35 2.43-3.411 4.71-3.885 6.902-.317 1.47-.366 2.977-.408 4.272-.017.505-.032.978-.062 1.404-.112 1.61-.41 3.021-1.473 4.481-1.094 1.504-3.098 3.195-6.905 5.099Z"/><path fill="#080234" d="M31.16 38.24q-2.087 0-3.571-.984-1.46-1.008-2.22-2.88t-.75-4.536q.01-2.16.497-3.816.51-1.68 1.451-2.832a6.15 6.15 0 0 1 2.288-1.752q1.37-.6 3.074-.6 1.056 0 2.135.336a7.1 7.1 0 0 1 2.06.96q.382.24.501.624.12.384.021.768a1.34 1.34 0 0 1-.339.648q-.24.264-.625.336-.384.048-.84-.216-.813-.48-1.532-.672a5.6 5.6 0 0 0-1.44-.192q-1.392 0-2.354.648t-1.472 1.944q-.486 1.296-.494 3.24l-.007 1.8h-.288q.197-1.224.8-2.088a4.04 4.04 0 0 1 1.59-1.344q.962-.48 2.138-.48 1.464 0 2.589.696a4.87 4.87 0 0 1 1.768 1.92q.643 1.224.636 2.808-.006 1.632-.732 2.928a5.2 5.2 0 0 1-1.976 2.016q-1.251.72-2.907.72m-.157-2.448q.864 0 1.514-.384a2.6 2.6 0 0 0 1.036-1.08q.363-.72.367-1.632.004-.936-.353-1.632a2.57 2.57 0 0 0-1.028-1.08q-.645-.408-1.51-.408-.864 0-1.514.408a2.8 2.8 0 0 0-1.036 1.08q-.363.696-.367 1.632-.004.912.353 1.632.381.696 1.028 1.08.646.384 1.51.384"/></svg>