<svg xmlns="http://www.w3.org/2000/svg" width="51" height="50" fill="none"><rect width="46.972" height="46.615" x="1.494" y="1.5" fill="#8FBBF5" rx="6.5" transform="matrix(1 0 -.00415 1 .743 .193)"/><rect width="46.972" height="46.615" x="1.494" y="1.5" stroke="#080234" stroke-width="3" rx="6.5" transform="matrix(1 0 -.00415 1 .743 .193)"/><path fill="#080234" d="M22.096 34.193q-.768 0-1.126-.336-.335-.36-.332-1.032a1.6 1.6 0 0 1 .22-.792q.217-.384.627-.816l4.845-5.136q1.11-1.152 1.593-2.088.483-.96.488-1.92.005-1.2-.76-1.824-.742-.624-2.182-.624-.817 0-1.633.24-.817.216-1.66.768-.432.288-.816.24a1.17 1.17 0 0 1-.647-.312 1.36 1.36 0 0 1-.357-.648 1.4 1.4 0 0 1 .027-.768q.146-.408.579-.696a8 8 0 0 1 2.308-1.056q1.298-.36 2.593-.36 1.825 0 3.07.552t1.89 1.608q.643 1.056.637 2.568a5.9 5.9 0 0 1-.344 1.968q-.316.96-.992 1.944-.652.984-1.713 2.088l-4.532 4.704.004-.816h7.056q.648 0 .983.312t.332.936-.34.96-.986.336z"/></svg>