<svg width="60" height="60" viewBox="0 0 60 60" fill="none" xmlns="http://www.w3.org/2000/svg">
<path fill-rule="evenodd" clip-rule="evenodd" d="M30 59.3334C13.7997 59.3334 0.666672 46.2004 0.666672 30.0001C0.666672 13.7997 13.7997 0.666748 30 0.666748C46.2004 0.666748 59.3333 13.7997 59.3333 30.0001C59.3333 46.2004 46.2004 59.3334 30 59.3334ZM49.732 43.6658C52.423 39.7876 54 35.078 54 30.0001C54 16.7452 43.2548 6.00008 30 6.00008C16.7452 6.00008 6 16.7452 6 30.0001C6 35.078 7.57702 39.7876 10.268 43.6658C13.2692 39.7016 20.3216 38.0001 30 38.0001C39.6784 38.0001 46.7308 39.7016 49.732 43.6658ZM45.9058 47.9728C45.1253 45.1663 39.5184 43.3334 30 43.3334C20.4817 43.3334 14.8747 45.1663 14.0942 47.9728C18.3288 51.7232 23.8985 54.0001 30 54.0001C36.1015 54.0001 41.6712 51.7232 45.9058 47.9728ZM30 14.0001C23.5443 14.0001 19.3333 18.6821 19.3333 24.6667C19.3333 33.8064 24.029 38.0001 30 38.0001C35.9149 38.0001 40.6667 33.9457 40.6667 25.2001C40.6667 19.1243 36.4379 14.0001 30 14.0001ZM24.6667 24.6667C24.6667 30.7181 26.8486 32.6667 30 32.6667C33.1406 32.6667 35.3333 30.7958 35.3333 25.2001C35.3333 21.8679 33.2418 19.3334 30 19.3334C26.6233 19.3334 24.6667 21.5089 24.6667 24.6667Z" fill="#AEA1C9"></path>
</svg>