<svg width="25" height="25" viewBox="0 0 25 25" fill="none" xmlns="http://www.w3.org/2000/svg">
<path d="M23.7964 16.8074L17.9076 14.1686L17.8914 14.1611C17.5857 14.0303 17.2522 13.9779 16.9211 14.0084C16.59 14.039 16.2717 14.1516 15.9951 14.3361C15.9625 14.3576 15.9312 14.381 15.9014 14.4061L12.8589 16.9999C10.9313 16.0636 8.94133 14.0886 8.00507 12.1861L10.6026 9.09731C10.6276 9.06606 10.6513 9.03481 10.6738 9.00106C10.8544 8.72519 10.9639 8.40896 10.9927 8.08052C11.0215 7.75208 10.9686 7.42162 10.8388 7.11855V7.10355L8.19257 1.20476C8.02099 0.808834 7.72597 0.479019 7.35155 0.264547C6.97712 0.0500748 6.54337 -0.0375521 6.11506 0.0147472C4.42126 0.237632 2.86651 1.06947 1.74119 2.35488C0.615875 3.6403 -0.00305119 5.2914 1.13109e-05 6.9998C1.13109e-05 16.9249 8.07507 24.9999 18.0001 24.9999C19.7085 25.003 21.3596 24.3841 22.6451 23.2587C23.9305 22.1334 24.7623 20.5787 24.9852 18.8849C25.0376 18.4567 24.9501 18.0231 24.7359 17.6487C24.5217 17.2743 24.1921 16.9791 23.7964 16.8074ZM18.0001 22.9999C13.7581 22.9953 9.69107 21.3081 6.69147 18.3085C3.69187 15.3089 2.00466 11.2419 2.00003 6.9998C1.99532 5.77915 2.43509 4.59852 3.23721 3.67841C4.03932 2.75829 5.14893 2.1616 6.35881 1.99976C6.35831 2.00475 6.35831 2.00977 6.35881 2.01476L8.98383 7.8898L6.40006 10.9823C6.37378 11.0125 6.34995 11.0446 6.32881 11.0786C6.1407 11.3672 6.03035 11.6996 6.00845 12.0434C5.98655 12.3872 6.05384 12.7309 6.20381 13.0411C7.33631 15.3574 9.67008 17.6736 12.0113 18.8049C12.3238 18.9534 12.6695 19.0184 13.0145 18.9934C13.3596 18.9685 13.6923 18.8544 13.9801 18.6624C14.0123 18.6409 14.0432 18.6175 14.0726 18.5924L17.1114 15.9999L22.9864 18.6311H23.0002C22.8403 19.8427 22.2445 20.9546 21.3242 21.7587C20.4039 22.5628 19.2222 23.004 18.0001 22.9999Z" fill="#FC5130"/>
</svg>
