<svg width="1920" height="931" viewBox="0 0 1920 931" fill="none" xmlns="http://www.w3.org/2000/svg">
<path d="M179.114 513.874C179.922 514.706 180.989 515.315 182.209 515.565C187.512 516.642 192.136 521.282 193.215 526.594C193.811 529.515 196.456 531.56 199.436 531.396C202.415 531.233 204.816 528.897 205.077 525.923C205.513 520.951 208.088 515.824 212.327 511.505C216.043 507.71 220.903 504.517 227.614 501.449C230.624 500.069 231.953 496.516 230.574 493.492C229.194 490.481 225.641 489.152 222.617 490.531C214.639 494.176 208.472 498.291 203.759 503.099C201.371 505.534 199.34 508.179 197.717 510.957C194.132 507.385 189.571 504.805 184.613 503.795C181.362 503.135 178.194 505.227 177.533 508.478C177.116 510.516 177.775 512.498 179.114 513.874Z" fill="white"/>
<path d="M210.288 424.097C208.664 423.299 207.446 421.786 207.053 419.933C203.043 400.681 191.64 381.215 174.942 365.132C172.551 362.831 172.48 359.031 174.785 356.653C177.085 354.263 180.882 354.201 183.268 356.488C197.26 369.961 207.909 385.701 214.184 401.955C231.495 369.314 258.431 345.815 297.822 328.738C300.863 327.425 304.392 328.814 305.714 331.859C307.028 334.9 305.639 338.43 302.593 339.752C260.068 358.197 234.122 383.263 218.465 421.018C217.457 423.453 214.976 424.941 212.358 424.691C211.629 424.611 210.925 424.41 210.288 424.097Z" fill="white"/>
<path d="M117.808 480.876C117.133 481.445 116.328 481.875 115.441 482.098C113.279 482.662 110.988 481.983 109.483 480.339C104.149 474.513 89.2962 465.521 79.111 471.133C76.1989 472.736 72.5378 471.678 70.9346 468.766C69.3313 465.854 70.382 462.199 73.3017 460.589C85.6975 453.756 100.737 458.614 111.081 465.884C114.879 457.117 121.432 447.93 131.081 442.429C133.968 440.781 137.641 441.79 139.289 444.678C140.937 447.565 139.927 451.238 137.04 452.886C127.309 458.429 121.669 469.694 119.782 477.663C119.481 478.94 118.774 480.061 117.808 480.876Z" fill="white"/>
</svg>
