<svg width="24" height="22" viewBox="0 0 24 22" fill="none" xmlns="http://www.w3.org/2000/svg">
<path d="M11.3852 0.513087C11.7749 -0.126609 12.7036 -0.126607 13.0933 0.513088L16.2557 5.70462C16.3961 5.93507 16.6236 6.09901 16.8867 6.1592L22.8427 7.52202C23.5812 7.69099 23.8709 8.58779 23.3709 9.15688L19.3756 13.704C19.1953 13.9092 19.1068 14.1793 19.1307 14.4515L19.6587 20.4619C19.7245 21.2114 18.9704 21.7624 18.2764 21.4719L12.6254 19.1067C12.3783 19.0033 12.1002 19.0033 11.8532 19.1067L6.20211 21.4719C5.50814 21.7624 4.75402 21.2114 4.81985 20.4619L5.34784 14.4515C5.37175 14.1793 5.28324 13.9092 5.10289 13.704L1.10761 9.15688C0.607574 8.58779 0.897298 7.69099 1.63578 7.52202L7.59185 6.1592C7.85489 6.09901 8.08245 5.93507 8.22283 5.70462L11.3852 0.513087Z" fill="#FC5130"/>
</svg>
