<svg width="15" height="27" viewBox="0 0 15 27" fill="none" xmlns="http://www.w3.org/2000/svg">
<path d="M14.6457 12.4437L1.91672 0.315417C1.70433 0.112948 1.42216 0 1.12872 0C0.835288 0 0.553115 0.112948 0.340725 0.315417L0.32702 0.329121C0.223701 0.427275 0.14143 0.54542 0.0852108 0.676372C0.0289917 0.807323 0 0.948343 0 1.09085C0 1.23336 0.0289917 1.37438 0.0852108 1.50533C0.14143 1.63628 0.223701 1.75443 0.32702 1.85258L12.3137 13.2728L0.32702 24.6885C0.223701 24.7867 0.14143 24.9048 0.0852108 25.0358C0.0289917 25.1667 0 25.3078 0 25.4503C0 25.5928 0.0289917 25.7338 0.0852108 25.8647C0.14143 25.9957 0.223701 26.1138 0.32702 26.212L0.340725 26.2257C0.553115 26.4282 0.835288 26.5411 1.12872 26.5411C1.42216 26.5411 1.70433 26.4282 1.91672 26.2257L14.6457 14.0974C14.7577 13.9907 14.8468 13.8624 14.9077 13.7203C14.9686 13.5782 15 13.4252 15 13.2706C15 13.1159 14.9686 12.9629 14.9077 12.8208C14.8468 12.6787 14.7577 12.5504 14.6457 12.4437Z" fill="#2E1464"/>
</svg>
