<svg width="127" height="110" fill="none" xmlns="http://www.w3.org/2000/svg"><path d="M108.592 47.16c1.569-8.495 1.863-17.182-.843-25.255C101.64 3.861 80.192-8.312 56.961-10.356 33.729-12.401 9.433-5.373-10.823 5.82c-12.039 6.632-23.364 15.237-28.282 26.235-3.98 8.763-3.464 18.117-1.723 26.992 9.817 50.355 57.184 89.146 117.277 41.551 17.97-14.282 28.524-33.853 32.143-53.439Z" fill="#DBE5F1"/><path fill-rule="evenodd" clip-rule="evenodd" d="M50.432 35.176a17.439 17.439 0 0 0-17.677 17.66c.09 9.846 8.148 17.905 18 18a17.438 17.438 0 0 0 17.677-17.66c-.09-9.847-8.148-17.906-18-18ZM28.296 52.793a21.798 21.798 0 0 1 22.096-22.074c12.315.117 22.388 10.19 22.5 22.5a21.798 21.798 0 0 1-22.096 22.074c-12.315-.118-22.389-10.192-22.5-22.5Z" fill="#AEA1C9"/><path fill-rule="evenodd" clip-rule="evenodd" d="M50.493 41.862a2.28 2.28 0 0 1 2.25 2.25l.081 8.915a2.18 2.18 0 0 1-2.21 2.207 2.28 2.28 0 0 1-2.25-2.25l-.08-8.914a2.18 2.18 0 0 1 2.21-2.208ZM48.447 61.9a2.18 2.18 0 0 1 2.21-2.207h.021a2.28 2.28 0 0 1 2.25 2.25 2.18 2.18 0 0 1-2.21 2.207h-.021a2.28 2.28 0 0 1-2.25-2.25Z" fill="#AEA1C9"/></svg>