<svg width="205" height="181" fill="none" xmlns="http://www.w3.org/2000/svg"><path d="M174.695 100.927c4.299-8.647 7.415-17.72 7.406-26.674-.079-20.026-17.027-36.583-39.014-42.815-21.987-6.232-47.967-3.123-71.365 5.072-13.9 4.85-27.747 11.895-36.125 22.582-6.736 8.504-9.28 18.419-10.473 28.047-6.832 54.614 26.719 103.685 100.821 64.263 22.175-11.841 38.841-30.54 48.75-50.475Z" fill="#DBE5F1"/><path fill-rule="evenodd" clip-rule="evenodd" d="M102.312 87.344c-8.313.066-15.096 6.977-15.152 15.437-.056 8.46 6.637 15.265 14.95 15.199 8.312-.066 15.096-6.978 15.152-15.438.055-8.46-6.638-15.264-14.95-15.198ZM83.397 102.81c.07-10.575 8.55-19.214 18.94-19.297 10.39-.082 18.757 8.424 18.687 18.998-.069 10.575-8.549 19.215-18.939 19.297-10.39.083-18.757-8.423-18.688-18.998Z" fill="#AEA1C9"/><path fill-rule="evenodd" clip-rule="evenodd" d="M102.276 93.088c1.039-.008 1.876.842 1.869 1.9l-.051 7.659c-.007 1.057-.855 1.921-1.894 1.929-1.039.009-1.876-.842-1.869-1.899l.051-7.66c.007-1.057.855-1.92 1.894-1.929Zm-1.995 17.248c.007-1.058.855-1.922 1.894-1.93h.019c1.039-.008 1.875.842 1.868 1.9-.007 1.057-.854 1.921-1.894 1.929h-.018c-1.039.009-1.876-.842-1.869-1.899Z" fill="#AEA1C9"/></svg>