<svg width="40" height="40" viewBox="0 0 24 24" fill="none" xmlns="http://www.w3.org/2000/svg"><path clip-rule="evenodd" d="M7.29289 8.6957L10.6194 12L7.29289 15.3043C6.90237 15.6922 6.90237 16.3212 7.29289 16.7091C7.68342 17.097 8.31658 17.097 8.70711 16.7091L12 13.4382L15.2929 16.7091C15.6834 17.097 16.3166 17.097 16.7071 16.7091C17.0976 16.3212 17.0976 15.6922 16.7071 15.3043L13.3806 12L16.7071 8.6957C17.0976 8.30778 17.0976 7.67885 16.7071 7.29094C16.3166 6.90302 15.6834 6.90302 15.2929 7.29094L12 10.5618L8.70711 7.29094C8.31658 6.90302 7.68342 6.90302 7.29289 7.29094C6.90237 7.67885 6.90237 8.30778 7.29289 8.6957Z"/></svg>