<svg width="24" height="18" viewBox="0 0 24 18" fill="none" xmlns="http://www.w3.org/2000/svg"><path fill-rule="evenodd" clip-rule="evenodd" d="M20.5464 4.27823C18.2917 1.62713 15.445 0 12 0C8.55501 0 5.70827 1.62713 3.45364 4.27823C2.13714 5.82623 1.28881 7.36654 0.857719 8.44183L0.634097 8.99963L0.857461 9.55753C1.28803 10.633 2.13576 12.1734 3.45197 13.7216C5.70601 16.3728 8.55326 18 12 18C15.4467 18 18.294 16.3728 20.548 13.7216C21.8642 12.1734 22.712 10.633 23.1425 9.55753L23.3659 8.99963L23.1423 8.44183C22.7112 7.36654 21.8629 5.82623 20.5464 4.27823ZM18.2611 6.22177C18.8886 6.95963 19.4227 7.75613 19.8609 8.55176C19.9515 8.71619 20.0306 8.86656 20.0983 9.00033C20.0307 9.13404 19.9517 9.28435 19.8612 9.44869C19.4234 10.2442 18.8897 11.0406 18.2624 11.7784C16.5312 13.8147 14.4571 15 12 15C9.54289 15 7.46879 13.8147 5.73759 11.7784C5.11035 11.0406 4.57655 10.2442 4.13876 9.44869C4.04832 9.28435 3.96933 9.13404 3.90174 9.00033C3.96942 8.86656 4.04852 8.71619 4.13908 8.55176C4.57728 7.75613 5.11143 6.95963 5.73895 6.22177C7.4708 4.18537 9.54467 3 12 3C14.4553 3 16.5292 4.18537 18.2611 6.22177ZM12 13.5C9.51472 13.5 7.5 11.4853 7.5 9C7.5 6.51472 9.51472 4.5 12 4.5C14.4853 4.5 16.5 6.51472 16.5 9C16.5 11.4853 14.4853 13.5 12 13.5ZM13.5 9C13.5 9.82843 12.8284 10.5 12 10.5C11.1716 10.5 10.5 9.82843 10.5 9C10.5 8.17157 11.1716 7.5 12 7.5C12.8284 7.5 13.5 8.17157 13.5 9Z" fill="#FC5130"/></svg>