<svg width="64" height="64" viewBox="0 0 64 64" fill="none" xmlns="http://www.w3.org/2000/svg">
<path d="M59.4427 31.1638L55.943 53.1544C55.943 53.1805 55.9299 53.2066 55.9299 53.2328C55.7732 54.5125 55.3031 58.417 49.3484 58.417H22.6567C19.9536 58.417 17.9999 56.2101 17.9999 53.507V30.981C17.9999 30.6806 17.9737 30.3803 17.9346 30.0799L18.261 29.9755C19.2143 29.7012 31.1317 25.9665 31.1317 14.6839V5.63432C32.4245 5.50373 34.1221 5.59514 35.3105 6.48312C36.6424 7.47557 37.3215 9.39518 37.3215 12.2158V23.4984C37.3215 24.739 38.327 25.7445 39.5676 25.7445H54.9767C57.4839 25.7445 59.508 27.7816 59.508 30.2758C59.508 30.5631 59.4819 30.8635 59.4427 31.1638Z" stroke="#FC5130" stroke-width="3" stroke-linecap="round" stroke-linejoin="round"/>
<path d="M51 35H58" stroke="#FC5130" stroke-width="3" stroke-linecap="round"/>
<path d="M50 43H57" stroke="#FC5130" stroke-width="3" stroke-linecap="round"/>
<path d="M49 51H56" stroke="#FC5130" stroke-width="3" stroke-linecap="round"/>
<path d="M18 55.6742C18 56.9606 16.8113 58 15.3403 58H10.6597C9.18871 58 8 56.9606 8 55.6742V32.3258C8 31.0394 9.18871 30 10.6597 30H15.3403C16.8113 30 18 31.0394 18 32.3258V55.6742Z" stroke="#2E1464" stroke-width="3" stroke-linejoin="round"/>
</svg>
