<svg width="128" height="19" viewBox="0 0 128 19" fill="none" xmlns="http://www.w3.org/2000/svg"><g clip-path="url(#clip0)"><path d="M4.34749 17.8294C2.95471 17.0509 1.88335 15.9452 1.13057 14.518C0.377797 13.0907 0 11.4152 0 9.4859C0 7.55938 0.377797 5.88109 1.13057 4.45383C1.88335 3.02657 2.95753 1.92651 4.34749 1.15647C5.74026 0.386431 7.38115 0 9.27295 0C11.1648 0 12.8056 0.386431 14.1984 1.15647C15.5912 1.92651 16.6569 3.02657 17.4041 4.45383C18.1484 5.88109 18.5205 7.55938 18.5205 9.4859C18.5205 11.4124 18.1427 13.0907 17.39 14.518C16.6372 15.9452 15.563 17.0509 14.173 17.8294C12.7803 18.6079 11.1478 19 9.27295 19C7.38115 19 5.74026 18.6107 4.34749 17.8294ZM12.5547 13.81C13.3413 12.8199 13.736 11.3786 13.736 9.4859C13.736 7.59323 13.3385 6.15751 12.5406 5.17592C11.7427 4.19433 10.6544 3.70353 9.27013 3.70353C7.8689 3.70353 6.77498 4.18869 5.98555 5.16182C5.19612 6.13495 4.80423 7.57631 4.80423 9.4859C4.80423 11.3955 5.19894 12.8425 5.98555 13.8213C6.77216 14.8028 7.8689 15.2936 9.27013 15.2936C10.6742 15.2936 11.7681 14.8 12.5547 13.81Z"/><path d="M73.7861 0.761585C74.2062 1.19879 74.4176 1.76856 74.4176 2.47091V16.766C74.4176 17.4317 74.2259 17.9564 73.8396 18.3428C73.4534 18.7292 72.9459 18.921 72.3172 18.921C71.7025 18.921 71.2007 18.7292 70.806 18.3428C70.4113 17.9564 70.2139 17.4317 70.2139 16.766V9.04024L67.2197 14.5603C66.9209 15.1216 66.6051 15.5193 66.2752 15.7562C65.9425 15.9932 65.5478 16.1116 65.0939 16.1116C64.6372 16.1116 64.2453 15.9932 63.9126 15.7562C63.5799 15.5193 63.2641 15.1216 62.9681 14.5603L59.9993 9.19819V16.766C59.9993 17.4148 59.8019 17.9366 59.4072 18.3287C59.0125 18.7236 58.5022 18.921 57.8707 18.921C57.256 18.921 56.7542 18.7292 56.3595 18.3428C55.9647 17.9564 55.7674 17.4317 55.7674 16.766V2.47091C55.7674 1.77138 55.9817 1.20161 56.4102 0.761585C56.8388 0.324382 57.3857 0.10437 58.0511 0.10437C58.5247 0.10437 58.9533 0.239762 59.3396 0.510546C59.723 0.78133 60.05 1.1734 60.3122 1.68112L65.1447 10.7749L69.9489 1.68112C70.4902 0.629014 71.2261 0.10437 72.1565 0.10437C72.8218 0.10437 73.3632 0.324382 73.7861 0.761585Z"/><path d="M116.35 18.5402C115.149 18.2328 114.165 17.8097 113.396 17.2653C113.097 17.0368 112.882 16.8027 112.753 16.5545C112.62 16.3091 112.555 15.9932 112.555 15.6096C112.555 15.0849 112.713 14.628 113.029 14.2444C113.345 13.8579 113.711 13.6661 114.131 13.6661C114.36 13.6661 114.577 13.7028 114.788 13.7705C114.997 13.841 115.262 13.9736 115.575 14.1654C116.294 14.5687 117.007 14.8564 117.715 15.0313C118.425 15.2062 119.226 15.2936 120.117 15.2936C121.149 15.2936 121.933 15.1413 122.468 14.8339C123.001 14.5264 123.269 14.0751 123.269 13.48C123.269 13.0766 123.018 12.7297 122.522 12.442C122.023 12.1542 121.073 11.8694 119.672 11.5873C117.938 11.2206 116.581 10.7806 115.6 10.2729C114.619 9.76514 113.931 9.16434 113.539 8.47328C113.145 7.78222 112.947 6.94448 112.947 5.96289C112.947 4.84308 113.28 3.82482 113.945 2.91375C114.611 2.00267 115.524 1.28904 116.691 0.772862C117.856 0.259501 119.167 0 120.619 0C121.896 0 123.035 0.141033 124.033 0.420279C125.031 0.699525 125.942 1.13955 126.765 1.73471C127.081 1.96318 127.304 2.20294 127.436 2.4568C127.569 2.71066 127.633 3.02093 127.633 3.39044C127.633 3.91508 127.481 4.37203 127.174 4.75564C126.867 5.14207 126.503 5.33388 126.083 5.33388C125.854 5.33388 125.646 5.30285 125.451 5.2408C125.26 5.17874 124.986 5.04335 124.636 4.83462C124.549 4.78103 124.298 4.64564 123.887 4.42844C123.475 4.20843 122.993 4.03355 122.443 3.9038C121.89 3.77123 121.293 3.70635 120.644 3.70635C119.75 3.70635 119.032 3.87841 118.49 4.21972C117.946 4.56102 117.675 5.01232 117.675 5.57363C117.675 5.90647 117.771 6.17726 117.966 6.38881C118.158 6.59754 118.518 6.80627 119.043 7.00653C119.567 7.2068 120.348 7.41271 121.38 7.62426C123.06 7.99094 124.383 8.43379 125.347 8.95279C126.311 9.46897 126.993 10.0698 127.397 10.7524C127.8 11.435 128 12.2417 128 13.1697C128 14.3262 127.676 15.3472 127.027 16.2301C126.379 17.1158 125.474 17.7984 124.309 18.2807C123.145 18.7631 121.792 19.0028 120.252 19.0028C118.851 19 117.551 18.8477 116.35 18.5402Z"/><path d="M44.8395 15.6885L43.2099 13.3502C42.7898 12.755 42.3641 12.3094 41.9355 12.0104C41.507 11.7114 41.0023 11.5196 40.4243 11.4321C41.8256 11.0993 42.911 10.4477 43.6807 9.4746C44.4504 8.50147 44.8367 7.31679 44.8367 5.91492C44.8367 4.07585 44.2728 2.66834 43.1422 1.69803C42.0117 0.7249 40.3285 0.239746 38.0871 0.239746H31.1204C30.5452 0.239746 30.0913 0.408986 29.7614 0.750286C29.4287 1.09159 29.2624 1.52597 29.2624 2.05343C29.2624 2.59782 29.4316 3.04067 29.7727 3.37915C30.1139 3.72045 30.5621 3.88969 31.1204 3.88969H33.9623H37.3258C38.3944 3.88969 39.1613 4.06175 39.6236 4.40305C40.086 4.74435 40.32 5.30002 40.32 6.07288C40.32 6.826 40.0888 7.37039 39.6236 7.70323C39.1584 8.03606 38.3944 8.20248 37.3258 8.20248H33.9623H31.1063C30.5368 8.20248 30.0857 8.37172 29.7558 8.7102C29.4259 9.04868 29.2596 9.48025 29.2596 10.0049C29.2596 10.5465 29.4287 10.9837 29.7671 11.3221C30.1054 11.6606 30.5509 11.8299 31.1063 11.8299H34.0159H35.7244C36.0938 11.8299 36.4124 11.9145 36.683 12.0809C36.9537 12.2473 37.2131 12.5068 37.4583 12.8566L40.8726 17.8492C41.1348 18.2356 41.4506 18.5233 41.8171 18.7151C42.1836 18.9069 42.5783 19.0028 42.9984 19.0028C43.6102 19.0028 44.1487 18.8138 44.6139 18.4387C45.0791 18.0635 45.3103 17.5925 45.3103 17.034C45.3103 16.6081 45.1524 16.1624 44.8395 15.6885Z"/><path d="M103.44 15.7929L96.5047 1.54856C96.2763 1.07469 95.9351 0.710822 95.4812 0.456962C95.0245 0.203102 94.5367 0.0761719 94.0095 0.0761719C93.4654 0.0761719 92.972 0.203102 92.5265 0.456962C92.081 0.710822 91.7427 1.07469 91.5144 1.54856L84.5815 15.7929C84.4236 16.1258 84.3447 16.4501 84.3447 16.766C84.3447 17.3443 84.5843 17.8351 85.0664 18.2384C85.5485 18.6418 86.087 18.8421 86.6819 18.8421C87.0851 18.8421 87.4573 18.7377 87.7984 18.5261C88.1396 18.3146 88.4074 18.0015 88.5991 17.5812C88.5991 17.4487 94.0631 5.44108 94.0631 5.44108L96.6907 11.3024H96.6879L98.3119 14.9298H98.3175L99.4988 17.584C99.6906 18.0043 99.9528 18.3202 100.285 18.529C100.618 18.7377 100.985 18.8449 101.388 18.8449C101.983 18.8449 102.513 18.6446 102.978 18.2413C103.443 17.8379 103.674 17.3471 103.674 16.7689C103.677 16.4501 103.598 16.1258 103.44 15.7929Z"/></g><defs><clipPath id="clip0"><path d="M0 0H128V19H0V0Z" fill="#fff"/></clipPath></defs></svg>