<svg width="98" height="89" viewBox="0 0 98 89" fill="none" xmlns="http://www.w3.org/2000/svg"><g opacity=".2" fill="#AEA1C9"><path d="M9.38737 31.2568H19.0842V9.38737C19.0842 4.22947 23.3137 0 28.4716 0H88.6126C93.7705 0 98 4.22947 98 9.38737V79.2253C98 84.3832 93.7705 88.6126 88.6126 88.6126H13.4105C5.98316 88.6126 7.62939e-06 82.6295 7.62939e-06 75.2021V40.6442C7.62939e-06 35.4863 4.22948 31.2568 9.38737 31.2568ZM88.6126 80.9789C89.5411 80.9789 90.2632 80.2568 90.2632 79.3284V9.38737C90.2632 8.45895 89.5411 7.73684 88.6126 7.73684H28.4716C27.5432 7.73684 26.8211 8.45895 26.8211 9.38737V75.3053C26.8211 77.3684 26.4084 79.2253 25.5832 80.9789H88.6126ZM7.73685 75.3053C7.73685 78.4 10.3158 80.9789 13.4105 80.9789C16.5053 80.9789 19.0842 78.4 19.0842 75.3053V38.9937H9.38737C8.45895 38.9937 7.73685 39.7158 7.73685 40.6442V75.3053Z"/><path d="M78.2965 40.2316H67.0523C64.886 40.2316 63.2354 38.4779 63.2354 36.4147V20.4252C63.2354 18.2589 64.9891 16.6084 67.0523 16.6084H78.2965C80.4628 16.6084 82.1133 18.3621 82.1133 20.4252V36.3116C82.2165 38.4779 80.4628 40.2316 78.2965 40.2316Z"/><path d="M38.7875 48.4844H78.2969C80.4632 48.4844 82.1138 50.2381 82.1138 52.3012C82.1138 54.3644 80.3601 56.1181 78.2969 56.1181H38.7875C36.6211 56.1181 34.9706 54.3644 34.9706 52.3012C34.9706 50.2381 36.6211 48.4844 38.7875 48.4844Z"/><path d="M38.7877 32.4946H52.6109C54.7772 32.4946 56.4277 34.2483 56.4277 36.3115C56.4277 38.3746 54.674 40.1283 52.6109 40.1283H38.7877C36.6214 40.1283 34.9709 38.3746 34.9709 36.3115C34.9709 34.2483 36.6214 32.4946 38.7877 32.4946Z"/><path d="M38.7877 16.6084H52.6109C54.7772 16.6084 56.4277 18.3621 56.4277 20.4252C56.4277 22.4884 54.674 24.2421 52.6109 24.2421H38.7877C36.6214 24.2421 34.9709 22.4884 34.9709 20.4252C34.9709 18.3621 36.6214 16.6084 38.7877 16.6084Z"/><path d="M38.7875 64.3706H78.2969C80.4632 64.3706 82.1138 66.1243 82.1138 68.1874C82.1138 70.3538 80.3601 72.0043 78.2969 72.0043H38.7875C36.6211 72.0043 34.9706 70.2506 34.9706 68.1874C34.9706 66.1243 36.6211 64.3706 38.7875 64.3706Z"/></g></svg>