<svg width="64" height="64" viewBox="0 0 64 64" fill="none" xmlns="http://www.w3.org/2000/svg">
<path d="M38.9043 12.594C41.2342 12.594 43.123 10.7052 43.123 8.37523C43.123 6.04529 41.2342 4.15649 38.9043 4.15649C36.5743 4.15649 34.6855 6.04529 34.6855 8.37523C34.6855 10.7052 36.5743 12.594 38.9043 12.594Z" stroke="#FC5130" stroke-width="3" stroke-miterlimit="10" stroke-linecap="round" stroke-linejoin="round"/>
<path d="M38.999 12.594C43.3115 12.594 46.874 15.8752 47.3427 20.094H30.6553C31.124 15.8752 34.6865 12.594 38.999 12.594Z" stroke="#FC5130" stroke-width="3" stroke-miterlimit="10" stroke-linecap="round" stroke-linejoin="round"/>
<path d="M22.2178 10.4375C24.5477 10.4375 26.4365 8.54868 26.4365 6.21874C26.4365 3.88879 24.5477 2 22.2178 2C19.8878 2 17.999 3.88879 17.999 6.21874C17.999 8.54868 19.8878 10.4375 22.2178 10.4375Z" stroke="#FC5130" stroke-width="3" stroke-miterlimit="10" stroke-linecap="round" stroke-linejoin="round"/>
<path d="M13.9688 20.0942V18.8755C13.9688 14.2817 17.7187 10.5317 22.3125 10.5317C26.9062 10.5317 30.6562 14.2817 30.6562 18.8755V20.0942H13.9688Z" stroke="#FC5130" stroke-width="3" stroke-miterlimit="10" stroke-linecap="round" stroke-linejoin="round"/>
<path d="M28.5 34.1562H39.5625C41.9062 34.1562 43.875 36.125 43.875 38.4687C43.875 40.8125 41.9062 42.7812 39.5625 42.7812H28.5" stroke="#2E1464" stroke-width="3" stroke-miterlimit="10" stroke-linecap="round" stroke-linejoin="round"/>
<path d="M42.5625 41.562L51.1875 32.937C52.875 31.2495 55.5937 31.2495 57.2812 32.937C58.9687 34.6245 58.9687 37.3432 57.2812 39.0307L43.5 52.812" stroke="#2E1464" stroke-width="3" stroke-miterlimit="10" stroke-linecap="round" stroke-linejoin="round"/>
<path d="M28.4999 34.1562H21.75L6 49.9062L18.0937 61.9999L23.7187 56.4687L43.4999 52.8124" stroke="#2E1464" stroke-width="3" stroke-miterlimit="10" stroke-linecap="round" stroke-linejoin="round"/>
</svg>
