<svg width="16" height="16" viewBox="0 0 16 16" fill="none" xmlns="http://www.w3.org/2000/svg"><path clip-rule="evenodd" d="M7.24094 5.55868C7.58634 5.09321 7.7102 4.60264 7.31956 4.16962C6.44292 2.94297 5.85336 2.18441 5.48356 1.81911C4.78052 1.12462 3.62401 1.21856 3.01513 1.81851C2.68809 2.14075 2.57737 2.25141 2.24158 2.59249C0.371143 4.46393 1.51183 8.42008 4.54419 11.4554C7.57587 14.4901 11.5316 15.6314 13.406 13.756C13.7159 13.4573 13.9782 13.1948 14.1851 12.9761C14.7818 12.3454 14.8724 11.2399 14.1812 10.5217C13.8268 10.1535 13.1035 9.59239 11.8252 8.67804C11.4337 8.32797 10.9695 8.40384 10.544 8.68304C10.3392 8.81734 10.1903 8.9532 9.90896 9.23479L9.39813 9.7459C9.33085 9.81322 8.41725 9.35569 7.53041 8.46797C6.64308 7.57977 6.18586 6.66612 6.25283 6.59916L6.76401 6.0877C6.85326 5.99836 6.89593 5.95511 6.95065 5.89759C7.06466 5.77778 7.15905 5.66904 7.24094 5.55868ZM10.3404 10.6887L10.8514 10.1775C11.0062 10.0225 11.1065 9.92722 11.1881 9.86152C12.3079 10.6657 12.9564 11.1713 13.2213 11.4465C13.3803 11.6118 13.3556 11.9133 13.2174 12.0594C13.026 12.2617 12.7775 12.5104 12.4724 12.8046C11.2604 14.0171 8.0672 13.0958 5.48668 10.5128C2.90536 7.92894 1.98452 4.73526 3.18739 3.53172C3.52184 3.19205 3.6278 3.08614 3.95017 2.7685C4.07104 2.6494 4.40028 2.62266 4.54731 2.76791C4.83203 3.04915 5.36016 3.72539 6.13707 4.80762C6.09685 4.85755 6.04662 4.91398 5.98549 4.97822C5.94062 5.02538 5.90324 5.06327 5.82152 5.14507L5.31084 5.65603C4.44207 6.52473 5.18194 8.00321 6.58791 9.41056C7.99292 10.8169 9.47195 11.5576 10.3404 10.6887Z"/></svg>