<svg width="64" height="64" viewBox="0 0 64 64" fill="none" xmlns="http://www.w3.org/2000/svg">
<path d="M47.4998 57.1C47.7998 57.1 47.9998 57.2 48.1998 57.3L55.1998 62.1L52.9998 53.5C52.8998 53 52.9998 52.5 53.3998 52.2L59.9998 46.5L51.5998 46C51.0998 46 50.5998 45.6 50.3998 45.1L47.3998 37L44.3998 45.1C44.1998 45.6 43.7998 45.9 43.1998 46L34.7998 46.5L41.3998 52.2C41.7998 52.5 41.9998 53.1 41.7998 53.5L39.5998 62.1L46.5998 57.3C46.9998 57.2 47.1998 57.1 47.4998 57.1Z" stroke="#FC5130" stroke-width="3" stroke-miterlimit="10" stroke-linecap="round" stroke-linejoin="round"/>
<path d="M36.8 37.2H10.2C6.5 37.2 3.5 40.2 3.5 43.9V53.2H28.8" stroke="#2E1464" stroke-width="3" stroke-miterlimit="10" stroke-linecap="round" stroke-linejoin="round"/>
<path d="M22.2004 29.2001C17.1004 29.2001 12.9004 25.0001 12.9004 19.9001C12.9004 19.2001 13.5004 18.6001 14.2004 18.6001C18.8004 18.6001 20.9004 15.1001 20.9004 11.9001C20.9004 11.2001 21.5004 10.6001 22.2004 10.6001C22.9004 10.6001 23.5004 11.2001 23.5004 11.9001C23.5004 15.1001 25.6004 18.6001 30.2004 18.6001C30.9004 18.6001 31.5004 19.2001 31.5004 19.9001C31.5004 25.0001 27.3004 29.2001 22.2004 29.2001Z" stroke="#2E1464" stroke-width="3" stroke-miterlimit="10" stroke-linecap="round" stroke-linejoin="round"/>
<path d="M32.8 29.2H11.5C9.3 29.2 7.5 27.4 7.5 25.2V17.2C7.5 9.1 14.1 2.5 22.2 2.5C30.3 2.5 36.9 9.1 36.9 17.2V25.2C36.8 27.4 35 29.2 32.8 29.2Z" stroke="#2E1464" stroke-width="3" stroke-miterlimit="10" stroke-linecap="round" stroke-linejoin="round"/>
</svg>
