<svg width="64" height="64" viewBox="0 0 64 64" fill="none" xmlns="http://www.w3.org/2000/svg">
<path d="M19.6 25.7001C21 25.1001 22.6 25.1001 24 25.7001V19.6001H3.7C3 19.6001 2.5 20.1001 2.5 20.8001V41.0001H3.4H8.6C8.3 41.7001 8.1 42.4001 8.1 43.2001C8.1 46.0001 10.4 48.3001 13.2 48.3001C16 48.3001 18.3 46.0001 18.3 43.2001C18.3 42.4001 18.1 41.7001 17.8 41.0001H23.9V35.0001C21.3 36.2001 18.3 35.1001 17.1 32.5001C15.9 30.0001 17 26.9001 19.6 25.7001Z" stroke="#2E1464" stroke-width="3" stroke-miterlimit="10" stroke-linecap="round" stroke-linejoin="round"/>
<path d="M8.6 45.4C8 44 8 42.4 8.6 41H2.5V61.2C2.5 61.9 3 62.4 3.7 62.4H23.9V61.5V56.3C24.6 56.6 25.3 56.8 26.1 56.8C28.9 56.8 31.2 54.5 31.2 51.7C31.2 48.9 28.9 46.6 26.1 46.6C25.3 46.6 24.6 46.8 23.9 47.1V41H17.8C19 43.6 17.9 46.6 15.3 47.8C12.8 49.1 9.8 48 8.6 45.4Z" stroke="#2E1464" stroke-width="3" stroke-miterlimit="10" stroke-linecap="round" stroke-linejoin="round"/>
<path d="M28.3004 56.4001C26.9004 57.0001 25.3004 57.0001 23.9004 56.4001V62.5H44.1004C44.8004 62.5 45.3004 62 45.3004 61.3V41.1H44.4004H39.2004C39.5004 40.4 39.7004 39.7001 39.7004 38.9001C39.7004 36.1001 37.4004 33.8 34.6004 33.8C31.8004 33.8 29.5004 36.1001 29.5004 38.9001C29.5004 39.7001 29.7004 40.4 30.0004 41.1H23.9004V47.2001C26.5004 46.0001 29.5004 47.1001 30.7004 49.7001C31.9004 52.2001 30.8004 55.2001 28.3004 56.4001Z" stroke="#2E1464" stroke-width="3" stroke-miterlimit="10" stroke-linecap="round" stroke-linejoin="round"/>
<path d="M51.2996 23.8C51.3996 25.3 50.8996 26.8 49.7996 27.9L55.4996 30L62.3996 11C62.5996 10.4 62.2996 9.7 61.6996 9.4L42.6996 2.5L42.3996 3.3L40.5996 8.2C40.0996 7.7 39.3996 7.2 38.6996 7C35.9996 6 33.0996 7.4 32.0996 10.1C31.0996 12.8 32.4996 15.7 35.1996 16.7C35.8996 17 36.6996 17.1 37.3996 17L35.2996 22.7L40.9996 24.8C40.6996 22 42.7996 19.5 45.6996 19.2C48.5996 18.9 51.0996 21 51.2996 23.8Z" stroke="#FC5130" stroke-width="3" stroke-miterlimit="10" stroke-linecap="round" stroke-linejoin="round"/>
</svg>
