<svg width="26" height="16" viewBox="0 0 26 16" fill="none" xmlns="http://www.w3.org/2000/svg"><path d="M7.17592 15.7802C6.97754 15.7802 6.78096 15.7152 6.61685 15.5872L0.342655 10.6277C0.126241 10.4546 0 10.1949 0 9.91896V0.901724C0 0.405776 0.403972 0 0.901724 0H9.91896C10.4167 0 10.8207 0.405776 10.8207 0.901724V9.91896C10.8207 10.4149 10.4167 10.8207 9.91896 10.8207H6.68899L8.02714 14.5755C8.1624 14.9542 8.02895 15.3762 7.70252 15.6106C7.54743 15.7243 7.36348 15.7802 7.17592 15.7802Z" fill="#FC5130"/><path d="M22.3552 15.7802C22.1569 15.7802 21.9603 15.7152 21.7962 15.5872L15.522 10.6277C15.3056 10.4546 15.1793 10.1949 15.1793 9.91896V0.901724C15.1793 0.405776 15.5833 0 16.081 0H25.0983C25.596 0 26 0.405776 26 0.901724V9.91896C26 10.4149 25.596 10.8207 25.0983 10.8207H21.8683L23.2065 14.5755C23.3417 14.9542 23.2083 15.3762 22.8818 15.6106C22.7267 15.7243 22.5428 15.7802 22.3552 15.7802Z" fill="#FC5130"/></svg>