<svg width="64" height="64" viewBox="0 0 64 64" fill="none" xmlns="http://www.w3.org/2000/svg">
<path d="M43.5 41C43.5 36.8579 46.8579 33.5 51 33.5H62.5V48.5H51C46.8579 48.5 43.5 45.1421 43.5 41Z" stroke="#2E1464" stroke-width="3"/>
<path fill-rule="evenodd" clip-rule="evenodd" d="M50.3614 12L48.8798 9.03686C48.8736 9.02455 48.8675 9.01227 48.8613 9H59.2C61.851 9 64 11.149 64 13.8V24.8C64 22.7856 62.7591 21.061 61 20.3489V13.8C61 12.8059 60.1941 12 59.2 12H50.3614ZM23.0964 12H4.8C3.80589 12 3 12.8059 3 13.8V20.3489C1.2409 21.061 0 22.7856 0 24.8V13.8C0 11.149 2.14903 9 4.8 9H28.6676L23.0964 12Z" fill="#2E1464"/>
<path d="M54.5252 20.3276L48.8798 9.03686C47.7412 6.75948 45.7758 5.08223 43.3492 4.31423C40.9226 3.54886 38.3518 3.78886 36.1066 4.99423L8.70117 19.7516" stroke="#FC5130" stroke-width="3" stroke-linecap="round"/>
<path d="M47.2002 8.80005L27.2002 20" stroke="#FC5130" stroke-width="3" stroke-linecap="round"/>
<rect x="1.2" y="21.2" width="61.6" height="39.6" rx="3.6" stroke="#2E1464" stroke-width="2.4"/>
<circle cx="52" cy="41" r="2.5" stroke="#2E1464" stroke-width="3"/>
</svg>
